<?xml version="1.0" standalone="no"?>
<!DOCTYPE svg PUBLIC "-//W3C//DTD SVG 20010904//EN"
 "http://www.w3.org/TR/2001/REC-SVG-20010904/DTD/svg10.dtd">
<svg version="1.0" xmlns="http://www.w3.org/2000/svg"
 width="512.000000pt" height="512.000000pt" viewBox="0 0 512.000000 512.000000"
 preserveAspectRatio="xMidYMid meet">
<metadata>
Created by potrace 1.11, written by Peter Selinger 2001-2013
</metadata>
<g transform="translate(0.000000,512.000000) scale(0.100000,-0.100000)"
fill="#000000" stroke="none">
<path d="M2524 5055 c-4 -8 -11 -12 -18 -9 -6 3 -2 -2 8 -10 22 -18 14 -21
-14 -6 -16 9 -18 8 -14 -5 5 -13 -1 -11 -32 6 -22 11 -30 14 -20 5 11 -9 24
-16 29 -16 4 0 5 -5 2 -11 -5 -7 -15 -5 -30 5 -15 10 -26 12 -30 6 -4 -6 -18
-2 -35 10 -18 13 -31 17 -35 10 -4 -6 -3 -10 2 -9 18 4 41 -13 36 -27 -3 -8 0
-14 7 -14 6 0 9 4 6 8 -3 5 1 9 9 9 21 0 19 -3 -17 -28 -22 -16 -28 -17 -19
-6 8 10 9 17 3 17 -6 0 -13 -4 -17 -10 -3 -5 -12 -7 -20 -4 -10 4 -12 -1 -9
-18 2 -13 1 -16 -2 -8 -4 8 -11 20 -15 26 -5 6 -4 11 4 12 33 3 52 10 47 18
-3 5 -11 9 -18 10 -6 1 -9 -2 -6 -8 4 -6 1 -9 -7 -6 -8 3 -13 14 -13 26 1 12
-3 19 -7 16 -5 -3 -7 -10 -4 -15 4 -5 0 -9 -7 -9 -10 0 -10 -2 1 -9 9 -6 10
-11 2 -15 -16 -10 -31 2 -24 19 3 8 0 15 -6 15 -6 0 -10 -5 -8 -12 1 -7 -5
-12 -13 -13 -8 0 -16 -10 -16 -22 -1 -13 -3 -26 -4 -30 -1 -5 -2 -12 -1 -16 1
-4 -8 -3 -19 3 -11 6 -25 8 -30 5 -5 -3 -12 0 -16 7 -4 7 -4 10 1 6 4 -4 14
-3 22 3 9 9 13 8 13 0 0 -6 5 -11 11 -11 5 0 7 5 3 12 -5 7 -3 8 5 3 10 -6 11
-3 2 14 -14 25 -23 28 -14 4 6 -16 5 -16 -10 -4 -10 8 -20 11 -24 7 -3 -3 -1
-6 6 -6 7 0 10 -4 6 -10 -3 -5 -12 -7 -20 -3 -18 6 -19 -1 -4 -29 9 -16 8 -19
-1 -13 -8 5 -20 -1 -31 -16 -18 -24 -18 -24 -12 -1 6 23 -10 29 -36 13 -11 -7
-10 -11 5 -20 11 -6 14 -11 8 -11 -5 0 -16 6 -23 13 -12 10 -13 9 -7 -7 5 -16
4 -17 -9 -6 -18 15 -20 0 -2 -20 10 -12 9 -12 -5 -1 -15 11 -18 11 -18 0 0 -8
-6 -5 -15 7 -12 16 -14 17 -15 2 0 -9 -13 -21 -29 -26 -24 -8 -29 -8 -25 3 3
7 13 12 22 11 10 0 16 6 16 16 -1 11 5 15 17 13 11 -2 19 1 19 6 0 6 4 8 9 5
4 -3 21 5 37 19 22 19 32 22 47 14 10 -6 21 -8 25 -5 3 3 -1 6 -9 6 -12 0 -12
2 1 10 8 5 11 12 7 17 -5 4 -12 1 -17 -7 -7 -12 -11 -12 -27 0 -10 8 -15 11
-11 6 8 -9 -43 -56 -54 -49 -13 8 -9 25 5 17 6 -4 8 -3 4 1 -13 15 -34 14 -34
-1 0 -8 5 -14 11 -14 6 0 4 -5 -4 -10 -11 -7 -17 -5 -22 8 -6 16 -7 15 -7 -1
-1 -10 -5 -15 -11 -12 -5 3 -10 1 -10 -5 0 -6 -4 -8 -10 -5 -6 4 -7 -1 -3 -12
6 -16 5 -16 -10 -4 -9 7 -17 12 -18 10 -8 -39 -7 -40 9 -28 14 11 15 11 5 -1
-18 -19 -16 -30 4 -30 26 0 11 -8 -26 -15 -19 -3 -38 -8 -43 -11 -4 -3 -5 1
-2 9 3 8 12 14 21 13 19 -1 26 14 15 32 -12 18 -42 4 -35 -15 4 -11 2 -14 -5
-9 -7 4 -20 3 -29 -3 -12 -6 -20 -5 -29 6 -9 13 -13 13 -19 3 -5 -8 -4 -11 2
-7 11 7 28 -20 24 -36 -1 -5 3 -6 8 -3 5 3 20 1 33 -4 22 -10 22 -10 -3 -5
-28 5 -55 -15 -42 -31 4 -5 2 -4 -6 3 -7 6 -21 9 -30 6 -11 -4 -10 -1 4 10 11
8 24 13 28 10 5 -3 4 4 -2 16 -7 13 -21 20 -34 20 l-22 -2 23 -4 c12 -2 22 -9
22 -14 0 -6 -5 -7 -12 -3 -6 4 -8 3 -5 -3 10 -17 -24 -25 -41 -11 -10 8 -9 4
3 -13 12 -16 27 -25 38 -23 16 3 17 1 6 -12 -12 -14 -17 -12 -46 20 -18 20
-33 32 -33 28 0 -4 6 -14 13 -21 10 -11 9 -13 -6 -8 -11 4 -20 1 -23 -8 -4 -8
-10 -12 -16 -9 -5 3 -4 -3 4 -15 7 -12 16 -21 21 -21 4 0 5 4 2 10 -3 6 1 7 9
4 16 -6 23 -25 9 -23 -26 4 -35 -2 -24 -15 9 -11 9 -16 0 -22 -7 -4 -9 -3 -6
3 4 6 1 16 -7 22 -10 9 -17 7 -27 -6 -12 -15 -12 -16 6 -10 l20 7 -20 -16
c-11 -8 -19 -19 -18 -24 1 -4 -7 -6 -17 -3 -11 3 -20 1 -20 -5 0 -6 -17 -9
-42 -7 -32 3 -38 1 -26 -6 11 -6 15 -16 11 -26 -4 -10 -2 -14 4 -10 7 5 9 -1
5 -15 -5 -19 -6 -20 -12 -4 -3 10 -10 18 -14 18 -14 0 -28 -31 -20 -44 5 -7 3
-8 -6 -3 -10 6 -12 4 -7 -9 4 -9 3 -15 -2 -11 -5 3 -11 0 -13 -7 -2 -6 -9 -8
-16 -4 -6 3 -8 14 -5 22 5 13 8 13 15 2 7 -10 8 -8 4 5 -4 12 -2 16 7 12 6 -4
4 0 -5 8 -10 8 -16 16 -13 19 3 2 -1 5 -8 5 -8 0 -14 -6 -14 -13 0 -7 5 -10
10 -7 6 4 8 -1 4 -11 -4 -10 -7 -21 -7 -24 -1 -4 -8 4 -16 18 -10 17 -13 18
-8 5 3 -11 7 -32 9 -46 1 -14 5 -31 9 -37 5 -8 1 -10 -11 -5 -16 6 -16 5 -4
-10 11 -14 11 -18 -3 -23 -10 -4 -15 -13 -12 -21 4 -8 1 -11 -5 -8 -6 4 -8 13
-5 21 7 19 -25 35 -47 23 -10 -6 -15 -14 -12 -20 4 -5 -1 -12 -10 -15 -14 -6
-14 -9 -3 -16 9 -7 7 -8 -9 -5 -19 4 -21 2 -13 -13 6 -10 7 -27 4 -37 -4 -13
-3 -14 4 -5 7 11 10 11 16 -3 3 -9 11 -13 17 -9 8 4 9 3 5 -5 -6 -9 -11 -9
-21 -1 -9 8 -15 8 -20 0 -3 -5 -1 -10 5 -10 6 0 8 -5 4 -11 -4 -8 -9 -7 -15 2
-4 7 -6 16 -3 20 2 4 0 10 -5 14 -6 3 -8 13 -5 23 4 13 3 12 -7 -2 -9 -15 -9
-21 -1 -24 7 -2 9 -8 6 -13 -3 -6 -11 -5 -20 2 -12 10 -15 10 -12 -2 2 -8 -3
-13 -11 -11 -12 3 -12 1 0 -14 12 -16 12 -17 -4 -11 -11 4 -16 3 -12 -4 4 -5
2 -16 -5 -24 -8 -9 -8 -15 0 -20 6 -3 8 -11 4 -16 -3 -5 -13 -1 -22 9 -9 10
-12 11 -7 3 8 -11 6 -13 -6 -9 -9 4 -16 1 -16 -7 0 -7 8 -10 19 -7 14 3 18 -1
18 -22 0 -15 4 -25 8 -22 4 2 14 0 22 -5 13 -9 13 -10 0 -7 -8 1 -30 -6 -47
-15 -23 -12 -33 -14 -33 -6 0 7 -3 10 -6 6 -3 -3 -2 -12 2 -19 14 -21 13 -37
-1 -32 -7 3 -16 0 -21 -7 -5 -9 -2 -10 9 -6 10 3 17 2 17 -3 0 -16 -19 -21
-42 -10 -21 10 -21 10 -5 -3 22 -18 22 -28 -1 -20 -14 5 -14 3 2 -9 19 -15 19
-16 -2 -29 -16 -10 -18 -16 -10 -26 6 -8 8 -16 5 -20 -3 -3 1 -22 9 -42 10
-23 11 -37 4 -39 -5 -2 -10 -10 -10 -18 0 -8 -4 -14 -10 -14 -5 0 -7 -7 -4
-15 4 -8 1 -15 -6 -15 -6 0 -8 5 -5 10 3 6 0 10 -7 10 -9 0 -9 3 2 10 21 13
22 50 2 42 -11 -4 -12 -7 -4 -10 7 -2 12 -8 12 -13 0 -6 -5 -7 -10 -4 -10 6
-15 -10 -10 -30 1 -5 3 -16 3 -22 0 -7 3 -11 5 -8 7 7 32 -15 32 -29 0 -6 -5
-4 -10 4 -5 8 -14 16 -20 16 -5 1 -15 2 -21 3 -5 0 -7 5 -4 11 3 5 0 7 -9 4
-12 -5 -13 -9 -3 -19 7 -7 15 -11 20 -8 4 2 7 0 7 -5 0 -16 -13 -21 -31 -12
-12 7 -20 6 -25 -2 -4 -6 -3 -8 3 -5 6 4 19 0 29 -9 18 -15 18 -15 -3 -9 -12
3 -25 1 -29 -6 -4 -8 -3 -9 4 -5 20 12 33 -3 21 -25 -13 -26 -5 -36 16 -19 18
15 19 7 3 -20 -11 -17 -14 -18 -29 -4 -13 12 -19 12 -25 3 -4 -7 -3 -10 3 -6
5 3 17 -3 26 -14 16 -18 44 -18 32 1 -3 4 2 13 10 20 10 9 15 9 15 1 0 -6 -4
-11 -8 -11 -5 0 -9 -7 -9 -15 0 -11 6 -13 21 -9 24 8 20 1 -10 -14 -15 -8 -27
-8 -46 2 -20 11 -25 11 -25 0 0 -7 4 -11 9 -8 8 5 12 -9 9 -33 -1 -7 3 -13 8
-13 5 0 8 9 6 21 -3 16 -1 18 9 10 7 -6 15 -9 18 -6 2 3 5 -1 5 -9 0 -8 -3
-15 -6 -14 -18 2 -24 -3 -12 -11 8 -6 10 -14 5 -22 -12 -20 -14 -39 -3 -39 5
0 9 8 9 18 0 14 2 14 9 3 7 -10 4 -19 -7 -28 -20 -15 -36 -17 -27 -3 3 6 2 10
-4 10 -5 0 -9 -9 -8 -19 0 -11 5 -17 9 -15 4 3 8 -2 8 -10 0 -19 -11 -21 -28
-4 -9 9 -12 9 -12 0 0 -7 5 -12 11 -12 5 0 8 -4 5 -8 -2 -4 0 -14 6 -22 8 -12
9 -12 4 3 -3 9 -1 17 4 17 6 0 10 -11 10 -25 0 -22 -3 -24 -18 -16 -14 7 -19
6 -19 -4 0 -7 6 -11 13 -8 9 3 12 -3 8 -20 -3 -20 1 -27 18 -33 13 -4 29 -7
36 -6 6 2 12 -2 12 -8 0 -5 -3 -9 -7 -8 -5 2 -9 -1 -10 -7 -1 -5 5 -9 13 -9 9
1 12 -1 9 -5 -4 -3 -17 -6 -28 -6 -16 0 -21 -5 -19 -19 2 -10 -1 -15 -6 -12
-5 3 -15 0 -23 -7 -8 -7 -12 -11 -10 -10 2 2 9 -5 16 -14 8 -11 14 -13 19 -5
4 7 2 12 -3 12 -6 0 -11 5 -11 10 0 6 3 9 8 8 4 -1 18 4 30 11 13 7 26 10 30
7 3 -3 1 -6 -5 -6 -6 0 -10 -8 -8 -17 1 -10 0 -12 -2 -5 -3 6 -9 12 -14 12 -6
0 -8 -4 -5 -9 3 -5 -1 -14 -9 -21 -8 -7 -12 -17 -9 -22 4 -6 10 -5 16 3 8 11
9 11 5 -1 -2 -8 -9 -16 -15 -16 -7 -1 -17 -2 -23 -3 -5 0 -7 -6 -3 -13 5 -7 3
-8 -6 -3 -10 6 -10 10 3 20 14 10 13 13 -5 24 -13 8 -24 9 -30 3 -6 -6 -5 -12
3 -17 8 -5 10 -4 5 3 -4 7 -3 12 3 12 15 0 23 -18 11 -25 -5 -3 -10 -16 -10
-27 0 -20 -1 -20 -18 -5 -13 12 -21 13 -32 6 -12 -9 -12 -10 3 -5 11 3 20 0
23 -9 3 -8 15 -17 26 -21 11 -3 17 -8 15 -11 -3 -2 -16 1 -29 8 -12 7 -27 12
-31 11 -4 -1 -18 3 -30 8 -21 11 -21 11 -3 -4 18 -15 15 -21 -8 -17 -5 1 -2
-9 8 -23 9 -14 16 -29 16 -33 0 -4 -5 0 -11 10 -6 9 -15 15 -21 11 -6 -4 -5
-9 3 -15 9 -5 4 -7 -14 -5 -15 1 -30 6 -35 11 -4 4 -2 5 4 2 6 -4 20 0 30 9
18 15 18 15 -1 6 -11 -5 -26 -7 -34 -4 -9 3 -11 -1 -7 -16 4 -12 2 -23 -5 -28
-8 -5 -9 -3 -4 6 5 8 4 11 -3 6 -6 -3 -16 2 -22 11 -8 13 -10 14 -9 3 3 -29
-1 -41 -11 -35 -5 3 -7 12 -3 20 3 8 0 15 -6 15 -6 0 -10 -3 -10 -7 1 -5 0
-11 -1 -15 -3 -9 -7 -23 -9 -35 -1 -5 -8 3 -17 17 -14 24 -15 24 -8 2 5 -22 4
-23 -18 -12 -19 9 -21 9 -8 -2 23 -20 23 -44 -1 -45 -16 -2 -18 1 -9 12 8 10
8 15 -1 21 -7 4 -9 3 -5 -4 8 -14 -23 -31 -44 -24 -8 2 -11 1 -7 -4 4 -4 37
-9 72 -9 36 -1 67 -4 70 -6 3 -3 -20 -5 -51 -5 -31 1 -58 -2 -60 -6 -3 -4 -11
-5 -18 -2 -8 3 -17 0 -21 -6 -5 -8 -11 -8 -21 1 -12 10 -13 9 -8 -5 3 -9 10
-16 16 -16 5 0 6 -5 3 -10 -5 -8 -12 -7 -22 2 -18 15 -45 20 -37 7 3 -5 8 -7
12 -5 11 6 32 -21 24 -30 -4 -5 3 0 15 10 13 10 20 23 17 27 -3 5 -1 9 5 9 5
0 11 -3 14 -7 2 -5 3 -3 1 2 -1 6 7 12 17 12 10 1 19 -3 19 -8 0 -6 -5 -7 -12
-3 -8 5 -9 2 -5 -10 5 -11 3 -15 -5 -10 -8 5 -9 1 -5 -12 7 -18 6 -18 -6 -2
-8 10 -17 15 -20 11 -4 -3 -2 -12 4 -20 9 -9 8 -13 0 -13 -6 0 -11 5 -11 11 0
14 -45 -19 -45 -34 -1 -6 4 -16 10 -20 6 -5 3 -7 -7 -4 -9 3 -19 -1 -22 -8 -3
-9 -12 -12 -23 -8 -15 5 -16 4 -7 -8 8 -9 8 -21 3 -34 -9 -18 -9 -18 -5 2 2
13 0 26 -5 29 -5 3 -6 11 -3 17 4 7 4 9 -1 5 -4 -4 -15 -2 -23 5 -13 10 -14 9
-7 -2 6 -11 4 -13 -9 -8 -14 6 -15 3 -6 -13 13 -25 3 -26 -24 -2 -21 17 -21
17 -5 -3 20 -25 21 -55 0 -55 -12 0 -12 -3 -3 -12 10 -9 16 -8 29 5 14 14 15
17 3 17 -10 1 -7 7 9 20 13 11 18 20 12 20 -7 0 -9 5 -5 11 4 8 9 7 14 -2 10
-15 1 -41 -11 -33 -5 3 -9 0 -9 -5 0 -6 6 -11 12 -11 7 0 -2 -10 -20 -22 -17
-13 -30 -28 -27 -35 2 -7 -1 -15 -8 -19 -7 -4 -9 -4 -5 1 4 4 0 14 -10 22 -9
8 -11 11 -4 8 11 -6 12 -3 4 11 -5 11 -8 25 -6 32 1 7 0 8 -3 2 -2 -5 -10 -7
-16 -4 -8 5 -8 2 1 -7 17 -19 15 -34 -4 -18 -10 8 -8 0 6 -25 27 -45 22 -57
-5 -15 -20 29 -35 37 -35 19 0 -5 4 -10 8 -10 12 0 10 -50 -2 -50 -6 0 -2 -7
8 -15 11 -8 16 -15 10 -15 -5 0 -17 6 -26 14 -12 9 -14 16 -7 23 8 8 8 16 -1
30 -6 10 -9 12 -7 3 2 -8 -1 -24 -6 -35 -15 -27 -19 -45 -18 -77 1 -16 -4 -28
-9 -28 -6 0 -8 -5 -5 -10 5 -8 12 -7 23 1 13 10 13 9 -1 -7 -15 -16 -19 -17
-27 -4 -5 9 -5 19 2 28 8 9 8 16 -1 25 -10 9 -11 8 -5 -6 5 -13 2 -16 -10 -11
-9 3 -13 11 -9 17 4 6 1 7 -7 2 -10 -6 -10 -11 3 -20 16 -11 15 -13 -1 -29
-22 -19 -29 -20 -35 -3 -2 6 -3 5 -2 -3 2 -8 6 -24 10 -35 6 -18 5 -18 -7 -4
-12 15 -15 15 -28 1 -13 -14 -12 -15 3 -9 9 3 19 2 22 -3 3 -4 0 -10 -7 -12
-8 -3 -8 -9 -1 -22 7 -13 13 -15 17 -7 4 6 2 11 -4 11 -6 0 0 15 14 33 14 19
23 37 18 42 -4 4 3 2 15 -6 19 -11 20 -15 8 -22 -9 -4 -13 -12 -10 -18 4 -5
-2 -6 -12 -2 -16 6 -17 5 -3 -13 14 -18 14 -18 -4 -4 -18 14 -19 13 -13 -2 3
-10 1 -20 -4 -24 -6 -3 -9 -15 -6 -25 3 -10 0 -22 -5 -26 -7 -3 -8 -1 -4 5 11
18 -5 14 -42 -8 -20 -12 -30 -25 -26 -32 5 -8 2 -9 -10 -5 -14 6 -15 4 -5 -15
10 -19 8 -25 -15 -45 -15 -13 -23 -23 -17 -23 10 0 8 -31 -4 -49 -3 -5 0 -13
6 -17 8 -5 9 -3 4 6 -6 9 -4 11 5 5 10 -6 12 -4 7 8 -3 9 -2 19 4 22 5 4 7 10
4 15 -3 4 2 14 11 21 13 10 17 10 25 -2 15 -23 10 -34 -6 -13 -11 15 -14 16
-15 3 0 -8 6 -21 13 -29 10 -12 9 -12 -5 -2 -11 9 -18 10 -23 2 -3 -5 -1 -10
5 -10 6 0 9 -4 5 -9 -3 -5 0 -11 7 -14 7 -2 5 -3 -4 -2 -10 2 -20 -1 -23 -6
-3 -4 -12 -6 -20 -2 -8 3 -15 0 -15 -7 0 -6 -5 -8 -12 -4 -8 5 -7 0 2 -11 11
-14 12 -19 3 -22 -17 -6 -16 -20 1 -26 10 -4 13 -1 9 9 -3 7 0 14 5 14 6 0 9
8 7 17 -2 13 4 18 21 19 13 1 21 -2 18 -7 -3 -5 -12 -9 -20 -9 -8 0 -12 -5 -9
-11 4 -6 14 -8 24 -4 9 3 1 -7 -16 -23 -37 -32 -42 -45 -15 -35 9 3 14 3 11
-1 -4 -4 -16 -8 -28 -11 -18 -3 -20 -1 -11 16 7 13 7 19 0 19 -5 0 -10 -7 -10
-16 0 -9 -6 -14 -13 -11 -8 3 -14 -1 -14 -8 0 -8 7 -11 16 -7 14 5 14 4 1 -14
-8 -10 -19 -23 -25 -27 -6 -5 -1 -6 10 -3 11 3 27 1 35 -5 13 -9 12 -10 -2 -5
-12 4 -18 0 -18 -11 0 -13 -3 -13 -18 -2 -14 11 -15 11 -5 -1 8 -9 9 -19 2
-32 -14 -26 -2 -41 22 -27 28 15 31 8 6 -16 -11 -11 -16 -14 -12 -6 6 10 4 12
-4 7 -6 -4 -18 -2 -26 4 -8 7 -15 8 -15 3 0 -5 12 -15 27 -22 21 -10 23 -14
13 -24 -10 -9 -14 -9 -17 1 -7 19 -41 34 -48 22 -4 -6 -3 -10 2 -9 20 3 34 -2
28 -11 -3 -5 -1 -10 6 -10 6 0 1 -9 -12 -21 -13 -11 -19 -18 -13 -15 7 3 15
-2 18 -11 6 -15 8 -15 16 -3 9 13 10 13 10 0 1 -11 3 -11 11 3 13 23 4 34 -15
18 -8 -7 -17 -8 -20 -3 -3 5 7 15 23 22 16 6 31 20 34 29 2 10 11 18 20 18 9
0 14 -4 11 -9 -3 -5 -9 -6 -14 -3 -4 3 -11 -5 -15 -18 -11 -36 -12 -57 -3 -63
12 -7 10 -24 -3 -24 -5 0 -8 4 -4 9 3 6 -4 9 -15 8 -11 -1 -20 -5 -20 -11 0
-5 -9 -1 -20 9 -17 16 -20 16 -15 3 4 -9 13 -19 21 -22 7 -3 11 -12 8 -19 -3
-8 2 -17 10 -20 9 -4 16 -2 16 3 0 6 -6 10 -12 10 -9 0 -8 4 2 10 12 8 12 10
1 10 -8 0 -12 3 -8 6 3 3 14 1 24 -5 11 -6 13 -11 5 -11 -7 0 -10 -4 -7 -10 3
-5 -2 -21 -11 -36 -17 -24 -17 -25 1 -22 12 2 19 -4 20 -19 1 -12 -2 -20 -6
-18 -10 7 -33 -24 -24 -33 4 -4 10 -1 12 6 5 13 23 17 23 4 0 -12 -49 -33 -61
-27 -10 7 -1 -24 13 -42 5 -7 5 -14 -2 -18 -5 -3 -10 -12 -10 -18 0 -7 4 -6
10 3 8 12 10 11 10 -7 0 -15 -5 -21 -14 -17 -8 3 -16 1 -20 -4 -9 -15 35 -7
45 9 8 11 9 9 5 -7 -7 -23 18 -29 44 -10 10 7 9 3 -3 -10 -9 -11 -14 -23 -11
-27 3 -3 -2 -4 -11 -3 -9 1 -21 9 -26 17 -7 12 -9 12 -9 -1 0 -13 -1 -13 -10
0 -8 13 -10 13 -10 -1 0 -9 7 -20 16 -23 8 -3 12 -11 8 -17 -4 -8 -9 -7 -15 2
-13 20 -11 1 2 -23 10 -18 9 -20 -7 -14 -14 5 -16 4 -7 -4 8 -9 16 -9 30 -1
10 6 12 11 6 11 -7 0 -13 5 -13 11 0 5 4 8 9 4 5 -3 13 0 17 6 4 7 3 9 -3 6
-5 -3 -10 0 -10 7 0 8 6 12 14 9 16 -6 17 -15 1 -32 -11 -11 -8 -12 12 -7 14
3 20 3 13 0 -7 -3 -9 -13 -6 -22 4 -14 3 -14 -5 -3 -8 12 -14 12 -25 3 -16
-14 -20 -62 -5 -62 6 0 4 -8 -3 -17 -13 -17 -13 -17 5 -3 11 8 20 13 22 10 1
-3 6 -1 11 4 5 6 2 6 -7 1 -13 -8 -13 -6 -1 8 7 9 18 14 23 11 5 -3 2 -14 -8
-25 -21 -24 -7 -25 19 -1 19 17 19 16 6 -6 -8 -12 -20 -22 -27 -22 -7 0 -10
-5 -7 -11 5 -7 16 -5 33 6 l27 16 -24 -20 c-21 -19 -20 -26 3 -22 5 1 3 -6 -5
-15 -8 -9 -13 -25 -11 -35 2 -9 -2 -21 -9 -25 -9 -5 -10 -1 -7 14 4 12 2 20
-3 17 -15 -10 -7 -53 10 -47 9 3 12 1 7 -6 -4 -7 -2 -12 3 -12 6 0 10 -5 8
-11 -1 -6 5 -14 13 -16 13 -4 13 -3 0 6 -8 6 -11 11 -7 11 4 0 3 9 -4 21 -7
14 -8 24 -1 31 6 6 8 17 5 24 -6 16 22 19 32 4 3 -5 0 -7 -9 -4 -11 4 -14 0
-11 -15 2 -12 0 -19 -6 -16 -5 4 -9 2 -9 -3 0 -5 9 -12 20 -15 11 -3 20 -11
19 -19 0 -10 -2 -10 -6 0 -2 6 -9 12 -14 12 -6 0 -7 -6 -1 -16 12 -22 3 -62
-10 -42 -5 8 -7 4 -4 -15 3 -16 0 -27 -6 -27 -6 0 -8 -3 -5 -6 4 -4 13 -2 20
4 8 7 18 8 23 4 4 -4 3 0 -3 8 -7 9 -9 20 -5 25 8 12 53 15 46 3 -3 -4 -15 -8
-26 -8 -20 0 -20 -1 -3 -20 10 -11 22 -17 28 -13 5 3 7 1 4 -4 -4 -6 0 -14 9
-17 13 -5 14 -9 4 -21 -9 -11 -9 -18 3 -29 8 -8 18 -12 23 -8 5 4 2 -1 -5 -11
-11 -14 -11 -21 -3 -29 7 -7 12 -17 12 -23 0 -5 -5 -3 -11 5 -8 12 -9 10 -4
-9 5 -15 3 -21 -3 -17 -21 13 -25 -18 -4 -34 14 -12 17 -21 11 -27 -7 -7 -2
-9 17 -7 14 1 31 7 37 13 6 6 15 11 21 11 5 0 1 -7 -10 -16 -18 -14 -18 -15 6
-9 19 5 22 4 10 -4 -13 -10 -13 -11 0 -12 8 -1 19 -1 23 0 5 1 6 -3 2 -9 -3
-6 -11 -8 -16 -5 -5 3 -6 -1 -3 -10 5 -12 10 -13 17 -6 6 6 15 11 21 11 5 0 1
-6 -9 -14 -18 -13 -45 -12 -43 2 3 23 -4 33 -18 28 -10 -4 -13 -2 -8 6 4 7 3
8 -4 4 -18 -11 -14 -29 4 -22 8 3 12 2 9 -3 -3 -5 -1 -12 5 -16 5 -3 10 -11
10 -17 0 -6 -8 -4 -18 5 -15 14 -19 14 -19 3 0 -8 5 -14 11 -13 6 1 10 -3 9
-10 -3 -15 18 -11 53 11 16 10 23 13 17 5 -18 -19 -16 -34 3 -19 8 8 14 9 12
4 -2 -5 2 -9 7 -9 5 0 9 4 7 8 -1 5 2 6 8 2 8 -5 7 -11 -1 -21 -9 -11 -9 -14
1 -14 10 0 10 -3 1 -14 -7 -9 -8 -17 -2 -20 5 -3 12 0 15 6 3 7 3 2 0 -11 -4
-15 -2 -21 4 -17 6 3 16 0 24 -7 7 -8 19 -12 26 -11 7 1 8 0 3 -2 -5 -3 -7
-19 -4 -36 2 -16 1 -28 -4 -25 -5 3 -15 1 -23 -5 -12 -8 -12 -9 2 -4 20 6 25
-10 6 -17 -10 -4 -10 -6 0 -6 7 -1 17 10 23 22 6 13 17 24 25 24 8 0 12 -2 10
-5 -3 -2 7 -15 22 -29 15 -14 27 -30 27 -36 1 -7 7 -11 14 -9 7 1 9 -2 5 -9
-4 -8 1 -9 17 -4 17 4 20 3 10 -3 -11 -8 -11 -10 0 -14 9 -3 8 -6 -5 -11 -11
-5 -15 -3 -10 5 4 7 3 8 -4 4 -7 -4 -12 -2 -12 4 0 6 -5 8 -12 4 -7 -4 -8 -3
-4 5 4 6 4 11 -1 10 -20 -3 -25 2 -13 16 7 8 8 15 3 15 -5 0 -15 -11 -21 -25
-15 -32 -15 -35 -1 -35 5 0 7 5 4 10 -9 15 7 12 29 -5 22 -17 30 -45 13 -45
-5 0 -7 -3 -4 -6 9 -9 38 16 32 26 -3 5 3 7 12 5 10 -1 24 2 31 8 8 6 12 6 12
-2 0 -10 -12 -15 -31 -13 -3 0 -11 -8 -18 -20 -7 -11 -8 -17 -2 -13 6 3 11 1
11 -5 0 -7 7 -10 15 -6 12 4 14 0 11 -18 -3 -19 -1 -22 19 -18 12 2 26 -1 29
-7 9 -14 26 -14 26 0 0 5 -5 7 -10 4 -6 -3 -13 0 -16 8 -3 8 -13 13 -22 10
-13 -3 -17 3 -17 26 -1 16 3 27 7 25 4 -3 8 0 8 7 0 7 3 9 6 6 4 -4 2 -12 -4
-20 -7 -8 -7 -18 -2 -27 8 -13 10 -13 10 1 0 19 26 33 35 18 4 -5 1 -8 -6 -7
-6 2 -14 -3 -17 -11 -3 -8 0 -11 7 -7 7 4 9 1 5 -8 -4 -11 0 -14 15 -11 12 2
25 6 29 9 4 2 9 -4 9 -15 2 -17 -8 -24 -29 -20 -5 0 -8 -4 -8 -10 0 -5 -4 -7
-10 -4 -6 3 -10 2 -10 -3 0 -6 7 -13 16 -16 8 -3 13 -2 10 3 -3 5 1 12 10 15
21 8 21 8 21 -9 0 -8 -4 -15 -9 -15 -4 0 -8 -5 -8 -11 0 -5 5 -7 10 -4 6 3 13
-1 16 -10 6 -13 8 -14 15 -3 6 9 11 10 16 2 11 -16 43 -13 43 4 0 12 -2 12
-17 1 -14 -12 -16 -12 -8 0 6 10 4 12 -5 6 -9 -6 -11 -4 -5 5 6 9 4 11 -5 5
-9 -6 -11 -4 -5 5 5 8 1 18 -10 27 -11 7 -15 13 -10 13 4 0 23 -11 40 -25 18
-13 34 -22 36 -20 3 2 12 -10 21 -26 10 -18 12 -27 5 -23 -6 4 -4 -2 7 -14 10
-12 22 -19 26 -17 5 3 11 -1 14 -7 3 -7 3 -3 0 10 -3 13 -1 22 6 22 6 0 8 -5
5 -11 -4 -6 -1 -10 6 -8 25 3 39 -1 39 -10 0 -6 -9 -8 -19 -6 -14 2 -19 -2
-18 -14 0 -10 6 -18 13 -18 7 0 10 7 6 16 -5 14 -3 14 11 3 8 -8 15 -19 13
-25 -1 -7 -1 -9 1 -4 9 14 22 -4 16 -21 -4 -13 -2 -13 10 3 16 21 13 40 -5 29
-7 -5 -8 -2 -4 5 5 7 11 10 14 7 3 -3 12 0 21 7 14 10 14 10 3 -5 -9 -11 -10
-18 -2 -23 8 -5 5 -12 -7 -22 -17 -13 -17 -13 3 -4 23 11 35 3 47 -29 4 -12 6
-11 6 3 1 14 5 16 18 9 10 -5 24 -7 31 -5 7 3 11 -1 10 -9 -2 -7 4 -13 12 -13
8 0 21 -4 29 -9 8 -5 16 -3 22 5 8 13 13 5 10 -14 -1 -5 3 -6 8 -3 5 4 14 -2
20 -11 6 -10 11 -13 11 -8 0 6 -5 16 -12 23 -9 9 -9 12 3 13 7 1 17 1 22 0 4
0 7 3 7 9 0 5 10 15 23 21 12 6 19 8 15 4 -10 -11 11 -47 23 -40 5 4 6 12 2
18 -5 9 -3 9 8 1 8 -5 23 -9 34 -9 15 2 20 -4 20 -20 0 -17 -4 -21 -15 -16 -8
5 -27 7 -42 6 -15 -1 -25 2 -22 6 3 5 -1 7 -8 6 -7 -2 -10 -2 -6 0 9 6 -2 33
-13 33 -4 0 -6 -7 -3 -15 4 -10 0 -13 -15 -10 -25 5 -18 -21 11 -36 15 -8 19
-8 14 0 -11 18 6 13 20 -6 13 -17 14 -17 7 2 -6 18 -5 18 10 6 9 -7 17 -10 17
-5 0 5 5 2 10 -6 6 -10 10 -11 10 -2 0 6 5 12 11 12 5 0 8 -4 5 -8 -2 -4 4 -8
14 -8 15 0 17 4 8 19 -5 10 -7 21 -4 25 3 3 6 0 6 -7 0 -7 5 -9 10 -6 8 5 8
11 0 20 -8 10 -8 15 1 21 7 4 9 3 5 -4 -7 -12 4 -21 34 -27 11 -2 20 1 20 7 0
6 3 8 6 5 4 -4 1 -13 -6 -22 -7 -9 -10 -18 -6 -22 10 -10 96 -11 96 -1 0 5 6
6 12 2 7 -5 81 -8 164 -9 118 0 150 3 147 13 -4 8 0 10 11 6 9 -3 14 -9 11
-13 -2 -4 2 -8 10 -8 8 0 12 4 9 8 -2 4 0 10 5 13 5 3 12 -2 15 -11 6 -15 8
-15 17 -3 8 13 10 13 19 0 8 -12 10 -12 10 -1 0 11 3 11 17 0 10 -8 14 -9 10
-2 -4 6 -3 14 3 18 5 3 10 2 10 -3 0 -5 7 -9 15 -9 8 0 15 4 15 9 0 4 -6 8
-14 8 -10 0 -13 8 -10 25 4 25 4 26 -21 9 -13 -9 -23 -19 -21 -23 3 -4 -4 -8
-15 -8 -10 -1 -19 3 -19 8 0 6 5 7 10 4 6 -3 10 -2 10 3 0 5 12 14 26 20 16 8
22 17 18 25 -6 9 -5 9 8 0 8 -7 18 -11 21 -8 4 3 5 2 2 -1 -2 -4 2 -13 10 -20
8 -8 12 -22 9 -32 -5 -14 -4 -14 4 -2 6 8 8 18 5 23 -3 5 0 7 8 5 8 -3 13 -14
12 -24 -1 -10 0 -13 3 -6 5 10 9 10 22 0 11 -8 10 -4 -3 11 l-20 24 25 -7 c18
-5 21 -5 11 3 -12 8 -12 12 -2 25 11 14 11 16 -5 17 -11 0 -14 3 -6 6 7 3 20
-1 29 -8 14 -12 15 -11 10 6 -4 11 -2 27 4 35 8 12 9 9 4 -9 -5 -17 -4 -21 5
-16 9 6 9 3 1 -12 -6 -11 -7 -23 -4 -27 3 -3 1 -6 -4 -6 -6 0 -13 5 -15 12 -3
8 -6 9 -11 1 -3 -5 4 -15 16 -20 20 -9 23 -8 25 10 0 12 9 27 18 34 13 9 14
13 4 13 -7 0 -10 3 -7 6 4 4 13 1 21 -5 9 -8 16 -8 20 -2 4 6 14 7 23 4 9 -4
14 -2 10 3 -3 6 -2 16 2 23 6 9 11 10 15 2 4 -6 1 -11 -6 -11 -9 0 -9 -3 2
-10 8 -5 10 -10 5 -10 -13 0 -17 -38 -5 -45 5 -3 12 0 16 6 5 8 3 9 -6 4 -10
-6 -11 -4 -6 11 5 10 9 25 9 32 0 7 7 10 14 7 8 -3 17 -5 19 -5 3 0 3 -4 0 -8
-3 -5 1 -9 9 -9 10 0 12 4 5 12 -10 12 -4 25 12 25 5 0 6 -5 2 -11 -4 -8 0 -8
15 0 24 13 28 23 6 15 -8 -4 -15 -1 -15 6 0 10 -3 10 -14 1 -11 -9 -16 -9 -22
0 -4 7 -3 9 3 6 6 -4 17 1 24 10 12 15 12 16 -4 10 -11 -4 -16 -3 -12 3 10 16
38 12 32 -4 -8 -21 39 -27 57 -7 14 15 13 17 -3 17 -12 0 -17 -5 -13 -15 3 -9
1 -12 -6 -7 -16 10 -15 37 1 35 32 -4 68 2 62 11 -3 5 -13 7 -23 4 -10 -4 -13
-3 -6 3 6 4 14 15 17 23 4 12 6 12 6 -2 1 -12 7 -16 19 -12 14 5 15 4 2 -5
-13 -9 -13 -11 0 -11 9 -1 5 -6 -10 -14 l-25 -14 27 1 c14 1 25 4 22 6 -2 2 4
10 14 18 16 12 16 13 -2 6 -13 -4 -17 -3 -12 5 3 6 -2 16 -11 22 -17 11 -17
11 0 6 23 -7 49 3 40 17 -4 6 -1 7 7 2 9 -5 10 -1 6 16 l-7 24 15 -25 c14 -24
12 -45 -3 -36 -4 3 -13 0 -21 -5 -11 -6 -5 -8 18 -4 22 4 31 2 27 -5 -3 -5 -1
-10 5 -10 6 0 8 -5 4 -12 -4 -7 -3 -8 4 -4 6 4 9 13 6 20 -3 7 2 19 11 26 12
10 18 10 30 0 8 -7 15 -9 16 -4 0 5 4 0 9 -11 8 -18 9 -18 9 -2 1 10 5 16 11
12 5 -3 7 -13 4 -23 -5 -16 -5 -16 6 0 6 10 16 18 22 18 9 0 9 -3 0 -12 -7 -7
-12 -17 -12 -23 0 -5 5 -2 11 7 5 10 15 18 21 18 7 0 6 -5 -2 -15 -7 -9 -8
-15 -2 -15 5 0 13 7 16 16 5 13 9 14 22 4 8 -7 12 -20 9 -28 -5 -13 -3 -13 11
-1 10 8 18 12 20 9 1 -3 6 -1 11 4 5 5 3 6 -4 2 -7 -4 -13 -2 -13 4 0 6 -4 9
-9 6 -5 -4 -6 4 -3 16 5 19 7 20 10 6 2 -10 7 -18 12 -18 5 0 11 8 14 18 2 9
3 3 1 -15 -2 -17 -6 -36 -10 -42 -4 -7 0 -8 11 -4 13 5 15 3 9 -8 -8 -12 -6
-12 8 0 19 15 24 2 6 -16 -8 -8 -7 -13 2 -18 7 -5 10 -4 6 2 -4 5 4 19 18 31
19 17 24 18 29 6 4 -11 10 -12 25 -4 23 12 31 13 30 2 -5 -31 23 -46 35 -19 3
6 3 2 1 -10 -3 -12 -1 -24 5 -28 8 -5 7 -12 -2 -23 -10 -14 -10 -15 2 -5 10
10 19 8 41 -8 16 -11 34 -17 41 -13 7 5 9 2 6 -8 -5 -11 0 -15 15 -14 15 1 21
-4 19 -14 -2 -8 0 -12 4 -8 4 4 13 3 21 -4 11 -8 12 -7 7 5 -3 8 -12 18 -20
21 -16 6 -10 26 7 26 6 0 7 -5 3 -12 -4 -6 -3 -8 4 -4 5 3 12 0 15 -6 3 -10 9
-9 22 3 16 16 15 16 -6 15 -16 -1 -23 5 -25 24 -1 14 0 19 2 12 3 -6 10 -10
15 -6 5 3 8 0 7 -8 -2 -8 4 -12 15 -10 21 4 22 -7 1 -37 -16 -22 -16 -22 4
-10 11 7 19 16 17 19 -2 3 3 16 12 30 10 17 12 18 8 5 -13 -40 -15 -65 -5 -65
6 0 9 4 6 9 -3 5 6 9 19 9 26 -1 34 -13 13 -21 -7 -3 4 -3 25 -1 29 3 36 1 31
-8 -6 -10 -4 -11 7 0 20 18 33 15 18 -5 -12 -16 -12 -17 2 -6 10 8 19 9 27 3
7 -6 10 -7 7 -4 -3 4 1 14 8 22 10 13 9 14 -2 7 -9 -5 -12 -4 -8 1 3 6 -5 10
-19 10 -13 0 -24 -4 -24 -9 0 -5 -6 -4 -14 2 -8 6 -20 10 -27 9 -7 -2 -13 2
-14 7 0 6 -4 17 -9 24 -5 8 5 5 23 -8 18 -13 35 -20 39 -17 3 4 0 11 -8 16
-11 7 -11 10 -2 10 7 0 15 -6 18 -13 5 -15 34 -19 34 -5 0 4 6 7 13 5 6 -1 11
5 9 13 -2 8 0 11 5 7 4 -5 8 -12 8 -15 1 -4 6 -17 13 -30 7 -12 10 -28 6 -35
-5 -7 -1 -7 10 2 13 11 14 16 4 22 -7 5 -9 9 -4 9 5 0 2 8 -5 17 -13 16 -12
17 4 4 11 -9 17 -10 17 -2 0 6 5 11 11 11 8 0 8 -5 -1 -15 -10 -11 -10 -18 -1
-29 9 -11 9 -15 -1 -19 -7 -2 -1 -4 13 -3 16 1 25 6 22 13 -3 7 -9 11 -13 10
-4 -1 -7 3 -7 8 1 6 10 9 20 9 10 -1 16 4 14 11 -3 6 1 12 9 12 12 0 12 -4 -1
-23 -9 -14 -11 -25 -5 -29 13 -8 32 4 25 16 -4 5 -1 17 4 26 6 11 11 13 11 5
0 -7 3 -11 8 -8 4 2 18 -2 32 -11 14 -8 17 -12 7 -9 -12 4 -16 2 -11 -6 5 -7
3 -8 -6 -3 -9 6 -11 4 -5 -5 5 -8 4 -11 -3 -6 -6 4 -9 12 -6 20 3 7 -2 13 -9
13 -9 0 -14 -9 -13 -22 1 -21 27 -28 42 -12 12 12 26 8 18 -5 -4 -7 2 -5 14 6
19 17 22 17 28 2 9 -22 26 -9 19 15 -4 10 -3 19 2 20 45 6 68 2 65 -9 -1 -8 2
-11 7 -8 5 4 14 -2 20 -11 6 -11 11 -13 11 -5 0 8 5 10 13 6 8 -5 8 -3 -2 9
-7 9 -17 14 -22 11 -5 -3 -9 0 -9 6 0 8 7 9 18 5 9 -4 23 -8 30 -8 6 0 12 -4
12 -8 0 -4 7 -10 16 -13 8 -3 13 -2 10 3 -9 14 20 21 33 8 9 -9 11 -8 6 6 -10
25 4 21 15 -5 9 -21 10 -21 9 -3 -2 34 1 41 11 25 7 -11 14 -12 27 -5 25 15
59 13 55 -3 -1 -8 2 -11 8 -7 8 5 6 13 -6 26 -10 11 -20 16 -23 11 -3 -5 -16
-8 -28 -7 -12 1 -19 -3 -16 -8 3 -6 1 -7 -5 -3 -16 10 -15 27 1 25 27 -3 47 2
47 12 0 5 -6 7 -12 3 -7 -4 -4 2 6 14 21 25 36 31 16 7 -10 -12 -10 -15 0 -15
8 0 10 -3 7 -7 -4 -3 2 -13 13 -20 17 -12 24 -12 35 -3 11 10 15 10 15 1 0 -7
4 -10 9 -7 5 4 11 3 14 -1 2 -5 2 -3 1 4 -2 7 6 15 17 18 10 4 19 11 19 16 0
6 4 8 9 5 5 -4 11 -1 13 5 3 9 10 9 28 0 23 -11 23 -11 7 2 -11 9 -14 18 -8
21 5 4 12 2 16 -4 3 -5 12 -10 18 -10 7 0 -1 12 -18 26 -25 22 -26 25 -8 20
12 -4 24 -2 27 3 4 6 13 8 21 5 9 -4 13 1 11 18 -2 17 2 24 15 25 10 1 21 -2
24 -8 4 -5 11 -9 17 -9 6 0 3 10 -8 22 -10 12 -13 18 -6 14 7 -4 12 -2 12 6 0
8 5 6 11 -5 5 -9 17 -17 26 -17 9 0 13 -3 9 -8 -4 -4 -13 -7 -19 -7 -17 0 -19
-22 -2 -29 9 -3 14 -2 11 3 -3 4 8 20 24 35 17 14 30 23 30 20 0 -4 7 -1 15 6
14 12 15 10 11 -13 -2 -15 -1 -29 3 -31 4 -3 7 16 6 42 0 43 -14 61 -24 31 -2
-7 1 -9 9 -4 9 5 11 4 6 -4 -4 -6 -12 -8 -18 -5 -7 5 -8 2 -3 -7 5 -8 4 -11 0
-6 -5 4 -18 -1 -29 -10 -20 -17 -20 -17 -7 0 15 18 2 24 -16 6 -7 -7 -12 -6
-17 6 -3 9 -2 14 3 10 5 -3 16 -2 25 1 12 5 13 11 5 27 -9 18 -7 18 10 -3 17
-20 21 -22 21 -7 0 9 5 17 11 17 5 0 7 6 3 13 -4 6 1 5 12 -4 10 -9 25 -14 32
-12 6 3 12 0 12 -7 0 -6 -4 -9 -8 -6 -4 2 -9 -5 -9 -16 -2 -16 4 -12 23 16 14
21 28 35 31 32 4 -3 13 3 20 14 8 11 19 18 24 15 5 -4 9 -3 10 2 0 4 2 19 3
31 4 31 25 43 49 30 14 -7 17 -7 13 1 -4 6 -1 12 6 13 7 0 18 2 23 3 6 2 16 3
24 4 11 1 10 4 -4 14 -12 10 -14 16 -7 21 7 4 12 2 12 -4 0 -6 4 -8 10 -5 6 3
10 14 10 23 0 13 -2 14 -9 3 -7 -11 -9 -11 -14 0 -4 11 -6 11 -6 1 -1 -7 -6
-10 -13 -6 -6 4 -8 3 -5 -3 4 -5 -3 -20 -14 -31 -20 -23 -35 -30 -24 -12 3 5
1 20 -5 32 -10 21 -10 21 3 6 15 -19 33 -25 22 -9 -3 5 -1 12 5 16 6 4 8 10 5
14 -2 5 7 7 21 5 16 -1 24 2 21 9 -2 7 -13 11 -23 9 -16 -2 -16 -1 -4 7 9 7
18 7 24 1 16 -16 29 -11 16 5 -7 9 -10 18 -6 22 3 3 6 0 6 -7 0 -7 3 -10 6 -7
4 3 16 2 27 -4 14 -8 18 -8 13 0 -4 6 -3 11 3 11 5 0 15 -8 20 -17 6 -10 11
-13 11 -8 0 6 -6 17 -12 24 -11 11 -8 12 12 7 22 -6 23 -5 7 4 -18 11 -18 13
2 27 12 8 25 12 30 8 5 -3 13 0 17 7 4 7 4 10 -1 6 -4 -4 -16 3 -26 15 -10 12
-18 16 -19 10 0 -7 5 -13 11 -13 5 0 7 -5 3 -11 -5 -8 -9 -8 -14 1 -4 7 -12 1
-19 -19 -7 -16 -19 -32 -27 -35 -8 -3 -12 -1 -9 4 3 5 1 20 -5 32 -11 22 -10
22 4 4 9 -11 19 -17 22 -13 4 4 1 15 -7 24 -13 17 -13 17 5 3 18 -14 19 -13
13 3 -4 10 -3 16 2 13 4 -3 13 6 20 20 6 14 15 23 20 20 5 -3 14 1 21 9 7 8 9
15 4 15 -5 0 -1 5 9 11 14 8 15 14 6 31 -8 15 -8 19 0 14 6 -4 16 -4 23 0 8 5
6 10 -8 16 -16 7 -16 8 4 4 19 -4 22 -1 17 12 -3 9 -3 13 1 9 8 -7 34 10 34
23 0 5 -8 10 -17 12 -15 3 -14 5 5 10 12 3 20 2 16 -3 -3 -5 -1 -9 5 -9 5 0
18 -3 28 -6 13 -4 15 -3 4 4 -9 6 -10 12 -3 16 6 4 9 13 6 21 -4 8 -11 12 -17
8 -6 -4 -7 -1 -2 7 6 10 4 12 -9 7 -10 -4 -15 -3 -11 4 4 5 15 7 26 4 11 -4
19 -2 19 4 0 6 -6 11 -12 11 -9 1 -8 5 3 13 9 7 14 17 12 24 -2 6 1 15 8 19 8
4 9 3 5 -5 -4 -6 -2 -19 6 -28 11 -14 11 -16 -1 -8 -10 6 -12 4 -6 -5 5 -8 4
-11 -1 -7 -11 6 -13 -38 -2 -48 4 -4 4 -13 1 -21 -3 -8 -1 -14 5 -14 12 0 11
18 -3 39 -5 10 -4 16 3 19 7 2 10 8 6 13 -5 8 9 13 31 10 6 -1 2 5 -7 12 -19
15 -24 52 -8 62 10 6 8 40 -3 51 -7 7 -11 -10 -8 -33 1 -7 -2 -13 -6 -13 -5 0
-9 13 -8 29 0 20 4 28 15 26 8 -2 16 -4 18 -5 1 -2 6 -3 11 -4 5 0 13 -5 18
-10 4 -5 3 -6 -4 -3 -13 8 -12 -18 2 -30 4 -4 5 -3 2 4 -4 6 -1 14 5 17 9 3 3
13 -16 29 -28 25 -23 43 9 31 12 -5 13 -9 5 -14 -8 -5 -7 -9 3 -13 11 -4 15 0
12 14 -2 11 4 23 16 29 10 6 19 15 19 21 0 6 -7 3 -16 -6 -14 -13 -19 -14 -26
-3 -7 9 -8 7 -3 -7 5 -16 4 -18 -6 -8 -10 10 -10 16 -1 25 7 7 12 20 12 30 0
10 5 18 11 18 5 0 7 5 3 12 -5 7 -3 8 6 3 9 -5 10 -2 5 14 -4 15 -3 21 7 19
16 -4 20 120 4 141 -8 11 -8 13 1 8 13 -8 13 40 -1 62 -6 9 -5 12 1 8 14 -9
12 131 -1 152 -6 9 -5 12 1 8 6 -4 10 9 10 33 0 24 -4 37 -10 33 -6 -4 -7 -1
-1 8 12 20 14 120 1 112 -6 -4 -7 -1 -1 8 16 25 15 58 -2 86 -10 18 -11 22 -2
11 13 -16 15 -10 14 57 0 41 -4 75 -8 75 -4 0 -8 5 -8 11 0 5 4 8 8 5 5 -3 9
1 9 9 0 10 -5 11 -18 4 -12 -6 -20 -5 -25 3 -4 7 -3 8 5 4 6 -4 14 0 17 8 3 9
11 13 17 9 6 -3 7 -1 3 6 -6 9 -11 9 -22 0 -12 -10 -13 -9 -8 4 4 12 1 15 -13
12 -25 -4 -26 23 -2 30 15 5 16 9 6 20 -6 7 -16 10 -21 7 -5 -3 -6 0 -2 7 6 9
11 9 21 1 10 -8 15 -8 21 2 13 21 12 46 -3 41 -16 -6 -17 -23 -2 -23 5 0 7 -5
4 -10 -5 -8 -11 -7 -21 1 -11 9 -18 8 -31 -2 -15 -11 -16 -11 -5 1 16 19 15
30 -2 30 -15 0 -32 37 -22 47 3 4 6 -1 6 -10 0 -9 9 -21 21 -27 16 -9 24 -8
38 4 10 9 21 13 26 9 4 -5 5 -2 0 5 -5 10 -10 11 -18 3 -14 -14 -30 -14 -22
-1 3 6 1 10 -5 10 -6 0 -8 5 -4 12 4 7 3 8 -4 4 -9 -5 -9 -13 -2 -26 8 -15 7
-18 -3 -14 -19 7 -16 67 3 76 12 5 12 7 -2 7 -10 1 -18 6 -18 11 0 6 -4 10 -9
10 -11 0 -9 -19 3 -38 4 -7 5 -16 2 -19 -3 -4 -6 0 -6 7 0 9 -4 8 -13 -4 -12
-16 -14 -16 -14 -2 0 9 3 16 7 16 3 0 6 11 6 25 0 14 -4 25 -8 25 -4 0 -8 5
-8 11 0 5 5 7 10 4 6 -3 10 -1 10 5 0 9 -52 6 -70 -5 -4 -2 -7 2 -7 9 0 7 10
12 21 12 17 -1 21 4 19 27 -1 15 1 26 5 23 4 -2 8 4 8 14 0 12 -6 17 -18 15
-20 -4 -25 11 -5 18 6 2 2 2 -10 0 -13 -2 -23 1 -23 7 0 5 5 10 10 10 6 0 10
5 10 10 0 6 -7 6 -18 -1 -10 -7 -19 -18 -19 -25 0 -7 4 -11 8 -9 8 6 26 -15
31 -35 2 -8 8 -19 13 -23 6 -5 3 -7 -7 -4 -9 3 -19 3 -21 -1 -2 -4 -2 -2 -1 5
2 6 -4 14 -13 17 -9 4 -13 9 -10 12 3 4 -1 13 -9 21 -10 11 -12 19 -4 27 5 7
7 16 3 19 -3 4 -12 -1 -20 -11 -11 -15 -12 -15 -7 0 4 11 -2 18 -16 23 -12 4
-19 9 -17 12 3 2 15 0 26 -7 27 -14 27 1 1 18 -15 9 -26 10 -43 2 -21 -11 -21
-11 -3 4 11 9 24 16 29 16 4 0 6 4 2 10 -3 5 -12 7 -20 3 -8 -3 -15 -1 -15 4
0 6 -9 20 -19 32 -19 21 -18 67 1 55 5 -3 5 -11 -2 -19 -7 -9 -6 -16 4 -24 11
-9 15 -8 20 4 4 12 10 13 24 6 15 -8 18 -6 17 9 -1 11 -5 23 -9 27 -4 5 -6 1
-4 -7 2 -8 -1 -14 -7 -15 -5 0 -16 -4 -23 -8 -13 -9 -16 3 -4 19 4 5 6 8 4 7
-9 -4 -40 32 -35 40 4 6 1 7 -7 2 -9 -6 -10 -2 -5 16 7 23 6 23 -7 5 -11 -14
-17 -16 -22 -7 -6 9 -11 9 -24 -1 -12 -10 -14 -10 -8 0 4 6 3 12 -3 12 -5 0
-12 -6 -15 -12 -3 -7 -3 -3 0 9 4 18 1 21 -19 19 -14 -2 -24 2 -24 11 0 7 3
11 5 8 3 -3 11 3 19 13 13 15 14 15 9 -8 -3 -14 -3 -19 0 -12 4 8 11 5 25 -10
11 -15 18 -18 19 -9 0 11 3 11 14 1 13 -10 13 -8 3 14 -8 17 -13 21 -15 11 -2
-8 -8 -15 -14 -15 -6 0 -8 9 -5 21 3 12 3 18 0 15 -11 -11 -32 15 -26 32 4 15
3 15 -6 2 -9 -13 -11 -13 -12 0 -1 8 -1 19 1 25 1 5 -7 2 -18 -8 -10 -9 -23
-14 -27 -10 -5 5 -3 -1 5 -12 14 -19 14 -19 -6 -2 -11 9 -25 14 -29 10 -5 -5
-3 0 4 10 8 10 9 17 3 17 -6 0 -16 -8 -21 -17 -6 -10 -11 -13 -11 -7 0 22 27
36 48 25 20 -11 32 -6 32 13 0 6 -5 4 -10 -4 -5 -8 -10 -10 -10 -3 0 11 -32
11 -61 -1 -20 -9 -50 19 -43 38 6 14 40 10 50 -6 3 -5 -6 -6 -22 -2 -19 5 -25
4 -20 -5 4 -6 12 -8 18 -5 7 4 8 2 4 -4 -10 -16 9 -15 22 1 15 18 2 35 -30 39
-30 4 -50 18 -26 18 20 0 31 27 16 36 -7 4 -8 3 -4 -4 9 -14 -31 -35 -55 -29
-11 3 -19 0 -19 -6 0 -7 -5 -4 -11 5 -5 9 -15 16 -22 14 -6 -1 -9 -1 -4 1 4 3
4 9 1 14 -3 6 -11 5 -20 -2 -10 -8 -14 -8 -14 0 0 6 5 11 10 11 6 0 10 5 10
11 0 5 -4 8 -8 5 -4 -2 -14 0 -22 6 -12 8 -12 9 3 4 11 -3 16 -2 12 4 -3 6 -2
10 4 10 5 0 13 -9 16 -20 4 -11 11 -17 17 -14 7 5 8 2 3 -6 -6 -9 -4 -11 5 -5
9 6 11 4 5 -5 -5 -8 -4 -11 3 -6 6 3 13 2 17 -4 10 -16 28 -12 21 5 -3 8 2 19
12 24 9 6 13 10 7 11 -21 0 -38 -18 -29 -31 4 -8 -6 -3 -23 11 -17 14 -29 28
-27 31 2 3 -8 11 -22 18 -14 6 -23 15 -19 20 3 6 -6 8 -20 5 -20 -3 -23 -1
-19 13 4 13 3 15 -4 5 -7 -11 -12 -10 -26 3 -9 9 -16 11 -16 5 0 -6 -5 -8 -10
-5 -6 4 -8 11 -5 16 9 14 -4 29 -20 23 -7 -3 -16 -13 -20 -22 -5 -13 -2 -13
15 3 11 10 20 13 20 7 0 -14 -35 -34 -44 -25 -3 3 -6 2 -6 -4 0 -5 -6 -10 -14
-10 -8 0 -12 6 -9 14 3 7 8 11 12 9 3 -2 12 7 18 21 12 24 11 25 -6 9 -10 -9
-23 -16 -29 -16 -7 0 -12 -8 -12 -17 0 -15 -2 -16 -10 -3 -6 10 -6 16 0 18 6
2 7 8 4 14 -4 7 -15 1 -27 -13 l-19 -24 16 28 c9 15 14 32 11 37 -3 5 -1 11 5
15 5 3 11 1 11 -4 1 -6 2 -16 3 -23 2 -19 22 -20 37 -1 11 15 11 16 -1 6 -18
-17 -38 -17 -22 -1 7 7 12 17 12 22 0 6 -5 4 -10 -4 -9 -13 -10 -13 -11 0 -1
8 -1 19 0 23 1 5 -4 5 -11 1 -14 -9 -28 -13 -66 -19 -25 -4 -21 10 10 26 16 9
19 8 13 -2 -5 -8 -4 -10 4 -5 6 4 9 12 6 17 -4 5 -2 9 4 9 5 0 12 -5 14 -10 3
-6 4 -5 3 2 -2 7 -11 12 -20 12 -9 -1 -16 2 -16 7 0 5 4 9 8 9 5 0 9 7 9 15 0
8 -4 12 -7 10 -4 -3 -8 6 -7 20 0 14 4 22 8 19 5 -3 8 0 7 7 -2 7 2 13 9 14 6
0 14 3 18 7 9 9 -16 5 -32 -5 -7 -5 -13 -4 -13 2 0 5 5 13 10 16 8 5 7 12 -1
22 -11 12 -10 14 3 11 9 -1 17 2 17 7 0 6 -8 8 -17 7 -13 -3 -14 -1 -3 12 10
12 17 13 26 6 10 -8 15 -8 21 1 4 7 3 9 -4 5 -6 -3 -13 -2 -17 4 -3 5 -1 10 6
10 7 0 9 3 6 6 -4 4 -13 1 -22 -6 -9 -8 -15 -8 -15 -2 0 6 5 14 10 17 6 4 7
11 4 17 -4 6 1 17 11 25 11 7 15 13 9 13 -19 -1 -41 -26 -38 -43 2 -13 -1 -15
-10 -8 -9 7 -16 7 -24 -1 -8 -8 -12 -9 -12 -1 0 6 7 13 15 16 8 4 12 15 10 27
-2 11 0 18 6 15 5 -4 9 -1 9 4 0 6 -8 11 -17 12 -15 0 -15 2 -3 7 8 4 17 22
18 40 4 33 -6 40 -26 20 -9 -9 -12 -9 -12 -1 0 7 9 15 20 18 11 3 20 11 20 17
0 5 -6 8 -14 5 -11 -4 -13 1 -11 24 2 16 6 33 9 38 6 9 -28 44 -35 37 -2 -2
-4 8 -4 24 0 15 3 26 8 23 4 -2 7 -12 7 -22 0 -10 3 -20 6 -24 9 -9 35 4 28
14 -3 5 -9 7 -14 4 -5 -3 -7 3 -5 14 2 11 -3 22 -11 25 -7 3 -11 12 -8 21 3 8
1 15 -5 15 -6 0 -11 5 -11 11 0 6 9 4 21 -5 12 -8 28 -12 37 -9 10 5 13 2 8
-6 -5 -7 -14 -10 -22 -7 -11 4 -12 1 -5 -12 5 -9 9 -20 10 -24 1 -5 4 -8 8 -7
4 0 11 -8 15 -18 7 -15 8 -14 4 5 -2 12 2 29 11 37 8 9 10 15 3 15 -6 0 -13
-7 -16 -15 -4 -8 -10 -12 -16 -9 -5 3 -4 12 3 21 27 32 15 60 -17 40 -7 -4
-17 -1 -23 7 -9 10 -8 15 3 19 9 4 14 1 12 -6 -1 -7 -1 -9 1 -4 3 4 12 7 21 8
14 0 13 2 -3 9 -11 5 -14 9 -7 9 6 1 12 5 12 10 0 5 -16 2 -34 -7 -19 -9 -33
-19 -30 -23 2 -4 0 -10 -5 -13 -12 -8 -8 23 5 32 12 9 16 32 5 32 -5 0 -11 -6
-14 -12 -3 -7 -5 -4 -4 8 1 18 13 22 46 15 2 -1 -2 -8 -9 -16 -11 -13 -10 -14
4 -9 10 4 15 13 11 21 -4 11 0 14 12 9 12 -4 11 0 -4 10 -18 13 -20 20 -13 34
8 15 6 18 -8 16 -9 -2 -21 2 -25 8 -6 7 -7 6 -4 -4 2 -8 10 -14 16 -12 6 1 11
-2 11 -8 0 -5 -6 -10 -12 -10 -9 0 -8 -4 2 -10 13 -8 12 -10 -4 -10 -12 0 -16
5 -13 15 4 8 2 17 -4 21 -5 3 -7 14 -4 25 5 14 3 17 -9 13 -10 -4 -16 -1 -17
7 -4 47 -19 80 -31 73 -7 -4 -8 -2 -4 4 4 7 2 12 -5 12 -7 0 -9 3 -6 6 4 4 13
2 20 -4 8 -7 18 -8 22 -4 5 4 5 2 2 -5 -8 -13 2 -45 12 -38 4 2 8 -2 8 -10 0
-8 -4 -15 -9 -15 -5 0 -6 -5 -2 -11 5 -8 9 -8 14 1 5 8 9 7 14 -5 3 -9 10 -13
16 -10 17 10 11 22 -12 29 -23 6 -23 6 7 32 19 16 21 20 6 11 -24 -16 -51 -13
-51 5 0 5 10 6 23 3 12 -4 17 -3 10 2 -17 12 -21 49 -5 45 8 -1 11 2 7 8 -5 8
-11 8 -19 1 -7 -6 -16 -8 -19 -4 -4 3 1 12 11 20 16 12 15 13 -3 6 -18 -6 -19
-5 -5 13 14 18 14 18 -6 1 -11 -9 -25 -14 -29 -10 -5 5 -3 0 4 -9 11 -15 11
-18 1 -18 -18 0 -6 -11 16 -14 10 -2 20 -8 22 -15 3 -9 -4 -8 -26 3 -16 8 -32
13 -36 11 -3 -3 -2 1 4 7 14 17 13 30 -2 23 -7 -4 0 5 17 19 16 14 26 28 22
32 -4 4 -7 2 -7 -4 0 -7 -5 -12 -11 -12 -6 0 -8 9 -4 23 4 14 3 18 -3 9 -6 -9
-11 -6 -20 12 -7 16 -8 28 -2 31 6 4 10 12 9 18 0 9 -2 9 -6 0 -2 -7 -9 -13
-14 -13 -4 0 -6 7 -3 15 4 8 1 21 -5 29 -6 7 -9 15 -7 17 3 2 -14 4 -36 4 -26
0 -42 5 -44 13 -1 7 0 8 3 2 2 -5 9 -7 14 -4 14 8 -10 34 -26 28 -7 -3 -15 -1
-19 4 -3 5 5 7 17 6 12 -1 22 -3 22 -4 0 -8 46 -7 50 1 4 6 1 10 -6 8 -29 -3
-49 1 -49 12 0 6 9 9 20 6 31 -8 24 3 -10 14 -16 6 -28 15 -27 19 1 5 -7 16
-18 25 -20 16 -20 16 3 12 30 -7 28 1 -3 13 -13 5 -23 15 -21 22 1 7 1 10 -1
6 -3 -5 -13 -8 -24 -8 -10 0 -19 -4 -19 -8 0 -5 -6 -9 -13 -9 -8 0 -14 6 -14
13 0 7 7 10 16 6 14 -5 14 -3 2 11 -7 9 -10 17 -5 17 5 1 -4 7 -21 14 -25 10
-26 13 -12 19 13 5 16 3 11 -6 -4 -6 -4 -9 1 -5 10 9 45 -9 45 -23 0 -6 -5 -7
-12 -3 -7 4 -8 3 -4 -4 5 -9 13 -9 27 -2 10 6 19 14 19 17 0 3 -3 4 -6 0 -4
-3 -12 -1 -19 6 -7 7 -22 18 -33 26 -12 8 -19 18 -16 23 3 4 -2 5 -11 1 -9 -3
-21 -15 -25 -27 l-9 -21 0 21 c-1 25 -24 48 -36 36 -5 -4 -5 -2 -1 5 3 6 2 14
-3 17 -5 4 -12 -2 -15 -11 -4 -15 -5 -15 -4 2 1 38 -2 46 -14 39 -7 -4 -8 -3
-4 4 4 6 13 9 21 6 8 -4 12 -11 8 -17 -4 -6 -1 -7 7 -2 8 5 11 4 6 -3 -3 -6
-2 -13 4 -17 23 -14 8 26 -15 41 -19 13 -28 14 -39 5 -11 -9 -18 -8 -30 4 -20
20 -20 21 -2 28 11 4 13 1 10 -11 -5 -14 -4 -15 5 -2 9 13 11 13 11 0 0 -11 2
-12 8 -3 6 9 16 7 42 -9 20 -11 29 -14 22 -6 -6 8 -9 18 -5 22 4 4 -1 4 -12 0
-17 -7 -18 -5 -8 7 10 13 10 16 -2 16 -8 0 -12 -4 -9 -9 3 -4 -5 -6 -18 -5
-14 3 -25 13 -29 28 -5 15 -7 18 -8 7 -1 -10 -11 -22 -22 -29 -12 -6 -19 -7
-15 -1 7 11 -21 25 -35 16 -5 -3 -9 0 -9 5 0 6 7 11 15 11 8 0 15 7 15 15 0
14 -3 13 -25 -1 -23 -15 -25 -15 -19 0 3 9 9 14 13 12 3 -2 12 3 19 10 12 13
9 14 -15 9 -27 -6 -27 -6 -8 10 20 17 20 17 -1 11 -23 -7 -73 39 -51 47 7 2
-5 4 -25 4 -20 -1 -34 -5 -32 -9 3 -5 10 -6 15 -2 6 3 18 -2 28 -12 17 -18 17
-20 -2 -36 -11 -10 -24 -18 -30 -18 -5 0 1 9 14 20 26 21 20 26 -14 9 -20 -9
-20 -9 -4 4 18 15 23 28 10 26 -25 -4 -34 3 -31 24 2 13 -2 21 -9 20 -7 -2
-13 3 -13 10 0 8 -4 7 -10 -3 -8 -13 -10 -13 -10 1 0 9 -7 20 -16 23 -9 3 -12
11 -8 18 4 7 3 10 -1 5 -5 -4 -17 1 -28 10 -15 13 -18 14 -12 3 5 -8 19 -23
32 -33 13 -10 21 -23 18 -28 -4 -5 -1 -10 4 -10 6 -1 16 -2 23 -3 14 -1 20
-36 6 -36 -6 0 -8 6 -5 13 3 8 -1 14 -7 14 -8 0 -12 -10 -10 -24 1 -13 -2 -21
-7 -17 -5 3 -7 9 -4 14 8 14 -6 40 -19 33 -6 -4 -6 -1 2 9 10 13 10 17 -5 23
-27 11 -63 14 -63 6 0 -15 13 -21 24 -11 7 5 17 5 26 0 11 -7 12 -10 2 -10 -8
0 -10 -5 -6 -12 6 -10 4 -10 -7 -2 -17 12 -29 12 -49 -1 -13 -8 -13 -7 -1 8
12 15 9 21 -11 18 -4 0 -5 6 -2 14 4 8 1 15 -5 15 -6 0 -11 -4 -11 -10 0 -5
-5 -10 -10 -10 -6 0 -9 5 -8 11 2 6 -3 14 -11 17 -9 3 -11 0 -6 -8 5 -9 4 -11
-4 -6 -6 4 -9 11 -6 16 3 5 1 11 -5 15 -5 3 -10 11 -10 18 0 6 6 3 13 -8 9
-11 19 -15 27 -10 8 5 11 4 7 -2 -3 -5 0 -10 8 -11 8 -1 22 -3 30 -4 8 -1 12
-5 10 -9 -6 -9 22 -5 30 4 3 4 2 5 -2 2 -3 -3 -12 0 -20 6 -7 6 -13 8 -13 3 0
-5 -8 4 -19 19 -15 23 -20 25 -24 13 -9 -22 -22 -20 -35 7 -6 12 -11 16 -11 9
-1 -7 -5 -11 -10 -7 -5 3 -13 0 -17 -6 -5 -8 -3 -9 6 -4 8 5 11 4 6 -3 -3 -6
-2 -13 4 -17 5 -3 10 -12 10 -18 0 -7 -5 -4 -11 6 -6 9 -16 14 -22 11 -7 -4
-9 -4 -5 1 4 4 2 15 -5 23 -10 13 -9 14 3 7 13 -7 7 3 -29 45 -2 3 -1 -3 2
-13 9 -24 -24 -19 -39 6 -10 17 -12 16 -24 -13 -9 -23 -15 -28 -21 -18 -5 7
-9 18 -9 23 0 6 5 3 10 -5 6 -9 10 -10 10 -3 0 6 -5 15 -10 18 -6 4 -7 11 -4
17 4 6 2 8 -4 4 -6 -3 -14 -2 -17 4 -5 8 -11 8 -20 0 -11 -9 -19 -8 -36 4 -20
14 -24 14 -36 -2 -14 -16 -14 -15 -8 3 5 15 3 17 -6 8 -13 -13 -3 -37 12 -28
5 4 9 1 9 -5 0 -6 5 -8 11 -4 8 4 7 9 -2 16 -11 7 -9 8 4 4 10 -3 21 -6 23 -6
3 0 2 -5 -2 -11 -5 -8 -1 -8 14 0 15 8 22 8 25 -2 4 -9 6 -9 6 1 1 7 6 10 12
6 8 -4 7 -9 -2 -14 -10 -7 -10 -12 2 -26 13 -16 12 -16 -8 -4 -12 8 -19 18
-17 22 3 4 -2 8 -11 8 -9 0 -14 -4 -11 -8 3 -5 -1 -9 -9 -9 -8 0 -12 4 -10 7
3 4 -7 8 -20 8 -14 0 -25 -5 -25 -11 0 -6 -3 -7 -7 -4 -3 4 -11 3 -18 -1 -6
-4 -3 0 7 9 21 20 12 34 -10 16 -13 -9 -14 -9 -8 1 5 8 1 12 -11 12 -15 0 -16
2 -3 10 9 6 17 5 23 -3 6 -8 7 -7 4 5 -5 15 17 34 36 29 5 -1 6 3 2 9 -4 7
-17 3 -36 -11 -29 -21 -31 -21 -44 -3 -8 11 -15 23 -15 28 0 5 -3 7 -6 4 -3
-4 2 -18 11 -32 10 -15 13 -26 6 -26 -5 0 -9 -6 -7 -12 1 -7 1 -10 -1 -5 -3 4
-9 7 -14 7 -6 0 -7 -5 -3 -11 3 -6 -7 -4 -23 4 -19 10 -34 12 -45 6 -11 -6
-21 -4 -32 6 -17 17 -30 20 -21 5 3 -5 2 -10 -3 -10 -6 0 -12 7 -16 15 -3 8
-10 15 -16 15 -6 0 -9 -4 -5 -9 3 -5 1 -12 -5 -16 -6 -4 -8 -11 -5 -16 4 -5 1
-9 -4 -9 -14 0 -14 13 1 28 8 8 8 12 1 12 -6 0 -18 -10 -27 -22 -8 -13 -13
-16 -11 -8 4 11 -1 16 -16 17 -15 1 -18 -1 -10 -11 8 -9 7 -13 -4 -13 -7 0
-14 3 -13 6 2 20 -4 22 -17 5 -15 -18 -15 -18 -8 0 5 14 3 17 -7 11 -9 -5 -11
-4 -6 4 4 6 11 9 16 6 5 -3 11 -1 14 3 3 5 17 8 31 7 14 -2 25 2 25 8 0 8 3 8
8 -1 7 -10 12 -8 25 6 14 15 14 19 2 19 -8 0 -12 -4 -10 -7 3 -4 -7 -7 -21 -7
-20 0 -25 4 -21 18 6 23 -1 25 -9 4z m-82 -59 c3 2 8 -1 11 -9 3 -9 -2 -13
-16 -12 -14 1 -21 9 -22 25 -2 20 0 21 10 7 7 -9 14 -14 17 -11z m-169 -11 c9
-4 17 -15 16 -24 0 -10 -2 -11 -6 -3 -2 6 -10 9 -15 6 -7 -5 -8 -2 -3 6 5 9 2
10 -12 6 -13 -4 -20 -2 -20 8 0 14 9 15 40 1z m524 -27 c-3 -8 -6 -5 -6 6 -1
11 2 17 5 13 3 -3 4 -12 1 -19z m-387 8 c0 -2 -9 -6 -20 -9 -11 -3 -18 -1 -14
4 5 9 34 13 34 5z m643 -22 c18 2 23 -2 22 -20 0 -12 -3 -25 -6 -29 -4 -3 -6
2 -5 12 1 13 -5 18 -21 17 -13 -1 -20 2 -18 7 3 4 1 10 -5 14 -5 3 -10 12 -10
18 0 7 5 5 10 -5 6 -9 20 -15 33 -14z m-783 -1 c0 -3 -7 -3 -15 1 -8 3 -15 0
-15 -6 0 -6 -3 -9 -6 -5 -11 10 6 26 21 20 8 -3 15 -7 15 -10z m675 -12 c3 -5
2 -12 -3 -15 -5 -3 -9 1 -9 9 0 17 3 19 12 6z m62 -13 c-3 -8 -6 -5 -6 6 -1
11 2 17 5 13 3 -3 4 -12 1 -19z m-817 2 c0 -5 -2 -10 -4 -10 -3 0 -8 5 -11 10
-3 6 -1 10 4 10 6 0 11 -4 11 -10z m-40 -14 c0 -3 -4 -8 -10 -11 -5 -3 -10 -1
-10 4 0 6 5 11 10 11 6 0 10 -2 10 -4z m-180 -20 c0 -3 -4 -8 -10 -11 -5 -3
-10 -1 -10 4 0 6 5 11 10 11 6 0 10 -2 10 -4z m-85 -35 c3 -5 1 -12 -5 -16 -5
-3 -10 1 -10 9 0 18 6 21 15 7z m-40 -31 c-3 -5 -14 -10 -23 -10 -15 0 -15 2
-2 10 20 13 33 13 25 0z m1532 -46 c-3 -3 -12 -4 -19 -1 -8 3 -5 6 6 6 11 1
17 -2 13 -5z m-1547 -8 c0 -3 -4 -8 -10 -11 -5 -3 -10 -1 -10 4 0 6 5 11 10
11 6 0 10 -2 10 -4z m1643 -53 c-5 -12 -9 -10 -19 8 -7 13 -10 28 -7 33 9 14
32 -24 26 -41z m-1759 22 c-3 -6 -13 -11 -23 -11 -10 0 -17 5 -15 11 3 6 13
11 23 11 10 0 17 -5 15 -11z m1767 -62 c12 -16 12 -17 -2 -6 -9 7 -20 9 -24 5
-5 -4 -5 -1 -1 6 9 16 11 15 27 -5z m49 -23 c0 -5 -5 -10 -11 -10 -5 0 -7 5
-4 10 3 6 8 10 11 10 2 0 4 -4 4 -10z m-1906 -48 c2 -4 -5 -9 -17 -9 -17 -2
-19 0 -7 7 18 12 18 12 24 2z m-161 -135 c4 3 7 4 7 0 0 -18 -21 -14 -30 5
-10 21 -10 21 3 6 8 -10 17 -15 20 -11z m2269 5 c-7 -2 -9 -9 -5 -15 3 -7 2
-8 -2 -4 -16 14 -14 36 3 29 10 -4 12 -7 4 -10z m83 -51 c0 -7 8 -18 18 -26
15 -10 15 -14 3 -18 -15 -6 -40 15 -30 25 2 3 -3 8 -12 12 -11 4 -15 2 -11 -7
3 -8 -1 -14 -9 -14 -13 0 -11 9 9 35 12 15 32 11 32 -7z m-2441 -23 c-1 -13
-3 -24 -4 -25 -2 -2 -3 -9 -4 -15 -1 -7 -10 -11 -21 -10 -16 3 -17 2 -6 -12
20 -24 7 -19 -15 6 -10 12 -13 18 -6 14 10 -6 17 7 10 17 -2 2 3 11 11 20 7
10 10 17 5 17 -5 0 -2 4 6 9 19 13 27 6 24 -21z m2465 -35 c12 10 13 9 6 -2
-6 -11 -4 -13 8 -8 11 4 14 2 10 -9 -4 -10 -9 -12 -18 -4 -6 5 -14 8 -17 5 -3
-3 -11 3 -19 12 -11 15 -11 16 1 6 11 -10 17 -10 29 0z m2 -70 c13 -16 12 -17
-3 -4 -10 7 -18 15 -18 17 0 8 8 3 21 -13z m-2551 -15 c0 -4 -5 -8 -11 -8 -5
0 -7 -5 -4 -10 4 -6 12 -7 18 -3 7 4 6 0 -2 -10 -7 -9 -17 -14 -22 -12 -4 3
-12 -2 -17 -11 -5 -10 -14 -14 -21 -9 -9 5 -6 14 10 31 12 13 19 24 15 24 -4
0 -5 4 -2 8 3 5 12 9 21 9 8 0 15 -4 15 -9z m2654 -27 c4 0 6 -9 3 -20 -2 -10
0 -25 4 -34 6 -10 5 -18 -2 -23 -8 -5 -9 -3 -4 6 6 10 4 12 -9 7 -11 -5 -15
-3 -10 5 5 7 2 9 -9 5 -11 -4 -14 -2 -10 9 4 10 9 11 17 4 9 -7 12 -4 11 12
-1 12 -8 24 -16 26 -11 3 -11 1 1 -7 12 -8 11 -10 -7 -8 -12 0 -20 4 -17 8 2
4 -4 10 -13 12 -15 4 26 3 61 -2z m-2677 -50 c-1 -13 -7 -17 -22 -13 -19 4
-19 4 -1 -10 15 -12 16 -17 6 -23 -9 -6 -11 -4 -5 5 6 9 4 12 -7 8 -9 -4 -15
0 -15 9 0 9 9 18 19 21 10 2 18 8 18 13 0 5 2 9 4 9 3 0 4 -8 3 -19z m2711
-58 c10 -18 9 -20 -8 -16 -23 6 -22 5 -14 28 7 18 7 18 22 -12z m-15 -38 c-3
-9 -8 -14 -10 -11 -3 3 -2 9 2 15 9 16 15 13 8 -4z m-2746 -1 c-3 -3 -12 -4
-19 -1 -8 3 -5 6 6 6 11 1 17 -2 13 -5z m-33 -55 c-15 -31 -11 -54 8 -43 7 5
8 2 4 -5 -6 -9 -13 -8 -27 5 -17 16 -19 16 -19 1 0 -10 6 -17 13 -18 10 0 10
-2 0 -6 -7 -2 -13 -11 -13 -19 0 -8 6 -14 13 -14 6 0 4 -5 -6 -11 -9 -6 -15
-14 -12 -19 3 -4 -2 -11 -11 -14 -15 -6 -15 -4 0 19 16 25 16 26 0 23 -9 -2
-19 3 -21 10 -3 6 0 12 7 12 6 0 8 -5 4 -12 -4 -6 -3 -8 3 -5 6 4 9 17 8 31
-2 15 6 32 21 45 18 15 23 28 20 47 -4 21 -3 24 9 14 13 -10 12 -16 -1 -41z
m46 32 c0 -6 -4 -12 -8 -15 -5 -3 -9 1 -9 9 0 8 4 15 9 15 4 0 8 -4 8 -9z
m-15 -41 c-3 -5 -12 -10 -18 -10 -7 0 -6 4 3 10 19 12 23 12 15 0z m2786 -47
c13 -16 12 -17 -3 -4 -17 13 -22 21 -14 21 2 0 10 -8 17 -17z m47 -114 c-3 -8
-7 -3 -11 10 -4 17 -3 21 5 13 5 -5 8 -16 6 -23z m-2907 -52 c-10 -9 -11 -8
-5 6 3 10 9 15 12 12 3 -3 0 -11 -7 -18z m-16 -47 c3 -5 1 -10 -4 -10 -6 0
-11 5 -11 10 0 6 2 10 4 10 3 0 8 -4 11 -10z m-45 -51 c-12 -8 -10 -10 8 -6
12 3 20 1 16 -4 -3 -5 -12 -9 -20 -9 -8 0 -12 -5 -9 -11 4 -6 14 -8 24 -5 14
5 14 4 -1 -7 -10 -8 -16 -17 -13 -21 3 -3 0 -2 -7 4 -8 6 -16 6 -25 -2 -11 -8
-12 -7 -7 6 3 9 10 16 14 16 5 0 7 8 5 18 -3 19 14 46 24 37 3 -3 -1 -11 -9
-16z m3015 -109 c-3 -5 -12 -10 -18 -10 -7 0 -6 4 3 10 19 12 23 12 15 0z m-8
-35 c0 -8 -4 -12 -9 -9 -5 3 -6 10 -3 15 9 13 12 11 12 -6z m24 -102 c-12 -20
-14 -14 -5 12 4 9 9 14 11 11 3 -2 0 -13 -6 -23z m-3024 -38 c0 -8 -4 -12 -9
-9 -5 3 -6 10 -3 15 9 13 12 11 12 -6z m-4 -28 c7 3 8 2 4 -2 -14 -16 -36 -14
-29 3 4 10 7 12 10 4 2 -7 9 -9 15 -5z m-4 -43 c4 3 8 -1 8 -9 0 -11 -4 -12
-14 -4 -7 6 -13 17 -12 23 0 7 2 6 6 -2 2 -6 8 -10 12 -8z m3054 -19 c4 -8 1
-18 -5 -21 -7 -4 -14 -2 -16 4 -2 7 -9 9 -15 5 -7 -4 -6 1 2 10 17 21 27 22
34 2z m-3048 -21 c19 -16 19 -16 -5 -9 -22 7 -23 6 -12 -8 11 -13 10 -15 -5
-13 -17 3 -24 21 -16 39 6 11 16 8 38 -9z m3045 -19 c0 -2 -14 -3 -31 -3 -17
1 -25 4 -18 8 10 7 49 2 49 -5z m0 -40 c-7 -8 -9 -19 -6 -24 4 -5 1 -13 -5
-17 -8 -4 -7 -9 2 -15 11 -7 11 -9 1 -9 -8 0 -10 -5 -5 -12 8 -14 12 -61 4
-53 -2 3 -11 -1 -19 -8 -13 -9 -14 -9 -8 1 4 6 3 12 -3 12 -5 0 -12 -5 -14
-10 -3 -6 -4 -5 -3 2 2 7 11 12 20 12 9 -1 16 5 16 13 0 8 -5 11 -12 7 -6 -4
-8 -3 -4 4 3 6 -2 18 -11 28 -16 16 -16 16 6 9 18 -6 22 -4 15 6 -15 24 -14
47 2 64 19 19 40 10 24 -10z m-3050 -155 c12 -7 10 -9 -8 -7 -12 0 -22 5 -22
9 0 11 12 10 30 -2z m-30 -26 c0 -2 -7 -4 -15 -4 -8 0 -15 4 -15 10 0 5 7 7
15 4 8 -4 15 -8 15 -10z m3106 -1 c-3 -17 -26 -32 -26 -16 0 8 20 33 26 33 1
0 1 -8 0 -17z m-3178 -28 c0 -14 -4 -28 -9 -31 -5 -3 -6 2 -3 11 4 9 3 15 -2
13 -5 -2 -9 2 -9 7 0 6 3 9 8 8 4 -2 7 2 7 7 0 6 2 10 4 10 2 0 4 -11 4 -25z
m3142 -5 c8 -5 11 -10 5 -10 -5 0 -17 5 -25 10 -8 5 -10 10 -5 10 6 0 17 -5
25 -10z m-3092 -25 c-3 -3 -9 2 -12 12 -6 14 -5 15 5 6 7 -7 10 -15 7 -18z
m3272 -20 c0 4 11 0 25 -9 14 -9 29 -14 34 -12 5 3 15 -2 22 -11 12 -15 11
-16 -8 -11 -13 4 -26 1 -30 -4 -3 -7 -1 -8 5 -4 7 4 12 2 12 -3 0 -21 -18 -11
-39 22 -11 17 -21 26 -21 20 0 -7 -8 -13 -17 -13 -15 0 -16 2 -3 10 13 8 12
10 -2 10 -10 0 -18 -5 -18 -12 0 -6 -3 -8 -6 -5 -4 4 -1 13 6 22 10 12 16 13
26 4 8 -6 14 -8 14 -4z m-3463 -19 c-3 -7 -1 -18 5 -24 6 -6 6 -12 -3 -17 -7
-5 -10 -4 -5 3 3 5 1 12 -5 14 -10 3 -3 38 8 38 3 0 3 -6 0 -14z m97 2 c-6 -9
-44 -6 -44 3 0 4 11 6 24 5 13 0 22 -4 20 -8z m-128 -26 c-2 -9 2 -20 8 -24 5
-4 -4 -6 -22 -4 -18 1 -32 5 -32 9 0 4 2 6 3 5 9 -7 36 25 30 35 -3 5 -1 7 5
4 5 -4 9 -15 8 -25z m69 18 c-3 -5 -12 -10 -18 -10 -7 0 -6 4 3 10 19 12 23
12 15 0z m3432 -32 c-3 -8 -6 -5 -6 6 -1 11 2 17 5 13 3 -3 4 -12 1 -19z m73
-22 c0 -2 -7 -7 -16 -10 -8 -3 -12 -2 -9 4 6 10 25 14 25 6z m61 -63 c13 -16
12 -17 -3 -4 -17 13 -22 21 -14 21 2 0 10 -8 17 -17z m74 -3 c3 -5 0 -12 -6
-16 -8 -5 -9 -3 -4 6 5 9 2 10 -14 5 -11 -3 -21 -3 -21 2 0 12 38 14 45 3z
m-3869 -61 c3 -6 1 -16 -6 -22 -10 -9 -11 -9 -5 2 4 8 2 17 -6 22 -9 6 -10 9
-2 9 6 0 15 -5 19 -11z m3898 -15 c3 -8 2 -12 -4 -9 -6 3 -10 10 -10 16 0 14
7 11 14 -7z m123 -43 c-7 -2 -20 -8 -29 -13 -12 -5 -18 -5 -18 2 0 5 7 10 16
10 10 0 14 6 11 14 -9 22 5 28 19 8 9 -13 10 -18 1 -21z m-4053 11 c3 -5 -1
-9 -9 -9 -8 0 -12 4 -9 9 3 4 7 8 9 8 2 0 6 -4 9 -8z m3996 3 c0 -7 -30 -13
-34 -7 -3 4 4 9 15 9 10 1 19 0 19 -2z m157 -110 c14 -10 20 -22 16 -31 -4
-11 -8 -12 -13 -4 -4 6 -10 11 -14 11 -20 -3 -26 0 -21 9 3 6 -2 10 -12 10
-15 0 -16 2 -3 10 20 13 22 13 47 -5z m-4337 -50 c0 -8 -4 -15 -8 -15 -5 0 -9
7 -9 15 0 8 4 15 9 15 4 0 8 -7 8 -15z m4334 -11 c3 -8 2 -12 -4 -9 -6 3 -10
10 -10 16 0 14 7 11 14 -7z m-4369 -43 c-3 -2 -16 -6 -28 -8 -12 -2 -17 0 -11
4 6 5 10 16 8 26 -2 18 -2 18 17 1 10 -9 17 -20 14 -23z m4410 -11 c3 -5 1
-10 -4 -10 -6 0 -11 5 -11 10 0 6 2 10 4 10 3 0 8 -4 11 -10z m-4415 -14 c0
-2 -7 -7 -16 -10 -8 -3 -12 -2 -9 4 6 10 25 14 25 6z m-25 -75 c3 -5 2 -12 -3
-15 -5 -3 -9 1 -9 9 0 17 3 19 12 6z m-62 -76 c-3 -9 -8 -14 -10 -11 -3 3 -2
9 2 15 9 16 15 13 8 -4z m-45 -54 c19 -11 -11 -23 -35 -14 -16 6 -16 4 -5 -9
7 -9 22 -15 33 -13 11 2 17 0 14 -5 -6 -9 -24 -8 -42 3 -14 9 -18 -5 -6 -17 4
-3 8 -14 9 -23 2 -11 0 -13 -9 -4 -8 8 -18 5 -36 -12 -21 -17 -20 -15 3 11 17
18 24 32 17 32 -11 0 -11 3 -1 15 7 8 9 15 4 15 -5 0 0 7 10 15 23 17 26 18
44 6z m4722 -15 c0 -2 -9 -6 -20 -9 -11 -3 -18 -1 -14 4 5 9 34 13 34 5z m10
-30 c0 -8 -7 -17 -16 -20 -13 -5 -14 -4 -6 7 7 8 9 17 5 20 -3 4 -1 7 5 7 7 0
12 -6 12 -14z m60 -166 c8 -5 11 -10 5 -10 -5 0 -17 5 -25 10 -8 5 -10 10 -5
10 6 0 17 -5 25 -10z m-4865 -50 c3 -5 1 -10 -4 -10 -6 0 -11 5 -11 10 0 6 2
10 4 10 3 0 8 -4 11 -10z m4885 -65 c0 -5 -5 -3 -10 5 -5 8 -10 20 -10 25 0 6
5 3 10 -5 5 -8 10 -19 10 -25z m-4940 0 c0 -8 -4 -15 -9 -15 -13 0 -22 16 -14
24 11 11 23 6 23 -9z m40 5 c0 -5 -7 -7 -15 -4 -8 4 -15 8 -15 10 0 2 7 4 15
4 8 0 15 -4 15 -10z m4935 -40 c-1 -11 -5 -23 -10 -27 -4 -5 -5 -2 -1 5 4 7 0
15 -10 19 -16 6 -16 7 2 14 10 4 19 8 20 8 0 1 0 -8 -1 -19z m-4944 -7 c13
-16 12 -17 -3 -4 -10 7 -18 15 -18 17 0 8 8 3 21 -13z m-24 -9 c-3 -3 -12 -4
-19 -1 -8 3 -5 6 6 6 11 1 17 -2 13 -5z m17 -26 c-3 -4 -13 -5 -24 -3 -11 2
-27 -3 -35 -11 -16 -17 -18 -14 -9 10 4 10 17 14 39 13 18 -1 31 -5 29 -9z
m4950 -18 c-6 -6 -15 -5 -24 1 -13 9 -12 10 3 5 9 -3 17 0 17 6 0 6 3 8 7 5 4
-4 2 -12 -3 -17z m-1 -95 c-3 -9 -8 -14 -10 -11 -3 3 -2 9 2 15 9 16 15 13 8
-4z m-4983 -125 c0 -5 -2 -10 -4 -10 -3 0 -8 5 -11 10 -3 6 -1 10 4 10 6 0 11
-4 11 -10z m-10 -104 c0 -3 -7 -12 -17 -21 -14 -14 -14 -18 -2 -26 8 -5 10 -9
4 -9 -5 0 -3 -5 5 -10 8 -5 11 -10 5 -10 -14 0 -30 13 -32 28 -2 6 -4 17 -5
24 -2 7 2 12 9 13 6 0 15 3 19 8 8 8 14 9 14 3z m11 -29 c-10 -9 -11 -8 -5 6
3 10 9 15 12 12 3 -3 0 -11 -7 -18z m-1 -61 c0 -3 -4 -8 -10 -11 -5 -3 -10 -1
-10 4 0 6 5 11 10 11 6 0 10 -2 10 -4z m30 -82 c0 -8 -19 -13 -24 -6 -3 5 1 9
9 9 8 0 15 -2 15 -3z m-54 -69 c-4 -12 0 -14 22 -10 25 5 25 5 5 -4 -13 -6
-23 -16 -23 -22 0 -17 -13 -2 -16 18 -3 18 3 33 13 33 3 0 3 -7 -1 -15z m4998
-13 c2 -4 -4 -8 -14 -8 -10 0 -16 4 -14 8 3 4 9 8 14 8 5 0 11 -4 14 -8z m16
-47 c0 -8 -4 -15 -10 -15 -5 0 -7 7 -4 15 4 8 8 15 10 15 2 0 4 -7 4 -15z m-4
-54 c0 -16 -5 -27 -9 -24 -5 3 -13 -1 -18 -8 -6 -10 -8 -8 -7 8 1 13 7 19 15
16 8 -3 13 -2 12 3 -2 14 1 34 5 34 2 0 3 -13 2 -29z m-36 -62 c0 -4 -9 -7
-19 -6 -11 0 -18 4 -16 7 6 9 35 8 35 -1z m-4790 -195 c0 -8 -19 -13 -24 -6
-3 5 1 9 9 9 8 0 15 -2 15 -3z m15 -73 c-6 -5 -25 10 -25 20 0 5 6 4 14 -3 8
-7 12 -15 11 -17z m0 -39 c-3 -8 0 -19 7 -23 10 -6 9 -12 -6 -26 -10 -10 -16
-13 -13 -7 4 6 -5 16 -18 22 -14 7 -25 17 -25 24 0 10 2 10 9 0 7 -11 9 -10
15 3 3 9 11 13 18 9 8 -5 9 -2 5 10 -4 11 -3 15 4 11 6 -4 8 -14 4 -23z m4675
-16 c0 -3 -4 -8 -10 -11 -5 -3 -10 -1 -10 4 0 6 5 11 10 11 6 0 10 -2 10 -4z
m-140 -156 c0 -5 -4 -10 -10 -10 -5 0 -10 5 -10 10 0 6 5 10 10 10 6 0 10 -4
10 -10z m-4365 -40 c3 -5 1 -10 -4 -10 -6 0 -11 5 -11 10 0 6 2 10 4 10 3 0 8
-4 11 -10z m4143 -205 c-3 -3 -9 2 -12 12 -6 14 -5 15 5 6 7 -7 10 -15 7 -18z
m-3958 -55 c0 -5 -2 -10 -4 -10 -3 0 -8 5 -11 10 -3 6 -1 10 4 10 6 0 11 -4
11 -10z m3877 -5 c-4 -8 -2 -17 3 -20 4 -3 10 0 12 6 2 7 9 10 15 8 6 -2 -10
-19 -36 -38 -25 -19 -40 -27 -32 -18 8 10 9 17 3 17 -6 0 -14 -4 -17 -10 -9
-15 -22 -12 -22 4 0 8 6 12 13 9 6 -2 15 1 19 7 4 6 16 8 27 4 16 -5 18 -3 12
7 -13 21 -14 39 -2 39 6 0 8 -7 5 -15z m-3777 -15 c0 -5 -5 -10 -11 -10 -5 0
-7 5 -4 10 3 6 8 10 11 10 2 0 4 -4 4 -10z m1920 -42 c0 -4 -4 -8 -9 -8 -6 0
-12 4 -15 8 -3 5 1 9 9 9 8 0 15 -4 15 -9z m-53 -14 c-3 -3 -12 -4 -19 -1 -8
3 -5 6 6 6 11 1 17 -2 13 -5z m43 -8 c0 4 5 3 11 -3 6 -6 18 -9 25 -6 8 3 14
0 14 -6 0 -15 38 -14 43 2 2 6 3 4 2 -5 -2 -10 1 -18 6 -18 5 0 9 6 10 13 0 9
2 9 5 0 3 -7 12 -9 19 -7 9 4 13 -1 12 -14 0 -12 -6 -18 -12 -14 -10 7 -28 11
-55 16 -9 1 -20 5 -25 8 -6 3 -18 4 -27 3 -9 -2 -27 9 -40 23 -13 15 -15 20
-5 13 9 -7 17 -10 17 -5z m77 -3 c0 -9 -4 -10 -14 -2 -7 6 -13 12 -13 14 0 1
6 2 13 2 8 0 14 -6 14 -14z m48 7 c3 -5 1 -10 -4 -10 -6 0 -11 5 -11 10 0 6 2
10 4 10 3 0 8 -4 11 -10z m-1991 -18 c2 -4 1 -14 -5 -22 -5 -8 -9 -13 -10 -10
0 3 -2 13 -4 23 -3 17 10 24 19 9z m1756 -3 c0 -4 -11 -6 -24 -5 -13 0 -22 4
-20 8 6 9 44 6 44 -3z m84 2 c3 -5 -1 -14 -9 -21 -13 -10 -15 -9 -15 9 0 21
14 28 24 12z m-1716 -43 c-2 -8 5 -12 17 -10 18 2 18 1 -3 -11 -12 -7 -19 -17
-15 -22 4 -4 3 -5 -3 -2 -8 5 -11 36 -5 55 3 8 11 0 9 -10z m1540 -13 c-3 -3
-9 2 -12 12 -6 14 -5 15 5 6 7 -7 10 -15 7 -18z m-33 6 c3 -5 2 -12 -3 -15 -5
-3 -9 1 -9 9 0 17 3 19 12 6z m500 -11 c3 -5 1 -10 -4 -10 -6 0 -11 5 -11 10
0 6 2 10 4 10 3 0 8 -4 11 -10z m-1898 -25 c4 -4 3 -5 -4 -2 -6 4 -13 2 -15
-5 -3 -8 -6 -6 -10 4 -7 17 15 19 29 3z m1878 6 c3 -6 -4 -9 -15 -8 -11 1 -20
5 -20 9 0 11 28 10 35 -1z m1325 -1 c0 -4 -12 -7 -26 -7 -14 0 -21 3 -15 7 7
3 18 7 26 7 8 0 15 -4 15 -7z m-3185 -20 c-3 -5 -12 -10 -18 -10 -7 0 -6 4 3
10 19 12 23 12 15 0z m1253 -20 c-7 -11 -14 -17 -17 -15 -2 3 1 11 7 18 7 8 8
18 4 22 -4 5 -1 5 5 1 10 -5 10 -11 1 -26z m1852 10 c6 -11 8 -20 6 -20 -3 0
-10 9 -16 20 -6 11 -8 20 -6 20 3 0 10 -9 16 -20z m-1786 -23 c7 -6 6 -7 -4
-4 -8 2 -16 12 -17 23 -2 13 -1 15 4 4 3 -8 11 -19 17 -23z m1827 8 c5 4 9 4
9 2 0 -9 -102 -69 -107 -63 -3 3 -12 1 -20 -6 -7 -6 -17 -8 -20 -4 -11 10 -12
37 -2 30 13 -7 49 -14 49 -8 0 3 -10 9 -22 14 -13 5 -16 9 -8 9 8 0 21 -3 29
-8 16 -11 41 -4 41 11 0 7 -5 6 -14 -1 -10 -9 -17 -7 -27 6 -10 11 -10 14 -1
9 7 -4 15 -1 19 9 5 16 7 16 15 1 13 -24 38 -20 39 7 1 17 2 18 6 4 2 -9 9
-15 14 -12z m-3181 5 c0 -5 -2 -10 -4 -10 -3 0 -8 5 -11 10 -3 6 -1 10 4 10 6
0 11 -4 11 -10z m100 -4 c-4 -4 -16 -4 -26 2 -16 9 -14 10 8 9 15 -1 23 -6 18
-11z m1964 -12 c6 2 8 1 4 -1 -5 -3 -8 -12 -7 -21 0 -11 3 -12 6 -5 3 10 9 9
21 -3 14 -15 17 -15 27 0 13 17 30 23 20 6 -3 -5 1 -10 9 -10 21 0 20 -13 -3
-34 -16 -15 -19 -15 -24 -2 -4 9 -12 14 -19 11 -7 -2 -29 9 -48 26 -19 17 -29
27 -21 23 11 -6 13 -3 7 12 -5 15 -4 16 5 7 6 -6 17 -10 23 -9z m-1984 -9 c11
-13 14 -13 27 2 8 10 12 14 10 8 -3 -5 1 -16 9 -23 10 -10 14 -10 14 -1 0 7 3
9 6 6 4 -4 1 -13 -6 -22 -9 -11 -17 -12 -31 -4 -10 5 -19 7 -19 3 0 -4 -9 1
-20 11 -11 10 -20 22 -20 27 0 13 16 9 30 -7z m1180 5 c0 -5 -2 -10 -4 -10 -3
0 -8 5 -11 10 -3 6 -1 10 4 10 6 0 11 -4 11 -10z m-1080 -41 c0 -5 -4 -7 -10
-4 -6 3 -7 -1 -4 -9 3 -9 2 -16 -4 -16 -8 0 -9 16 -3 38 3 7 21 0 21 -9z m34
-4 c3 -8 12 -12 21 -9 8 3 15 1 15 -4 0 -16 -18 -24 -25 -12 -5 8 -11 8 -20 0
-10 -8 -15 -8 -21 1 -4 7 -2 15 4 17 7 2 10 8 6 13 -3 5 -1 9 4 9 6 0 12 -7
16 -15z m61 5 c3 -5 1 -10 -4 -10 -6 0 -11 5 -11 10 0 6 2 10 4 10 3 0 8 -4
11 -10z m855 -10 c10 -6 11 -13 5 -19 -7 -7 -16 -7 -25 -1 -13 9 -13 10 0 11
10 0 8 3 -5 9 -13 6 -15 9 -5 9 8 0 22 -4 30 -9z m-153 -22 c-3 -8 -6 -5 -6 6
-1 11 2 17 5 13 3 -3 4 -12 1 -19z m1306 -11 c-3 -5 -10 -4 -15 1 -6 6 -7 16
-3 22 6 9 9 9 16 -1 4 -7 5 -17 2 -22z m117 27 c0 -8 -19 -13 -24 -6 -3 5 1 9
9 9 8 0 15 -2 15 -3z m277 -11 c0 -9 -4 -10 -14 -2 -7 6 -13 12 -13 14 0 1 6
2 13 2 8 0 14 -6 14 -14z m58 -1 c-3 -3 -11 0 -18 7 -9 10 -8 11 6 5 10 -3 15
-9 12 -12z m40 8 c3 -5 1 -10 -4 -10 -6 0 -11 5 -11 10 0 6 2 10 4 10 3 0 8
-4 11 -10z m105 0 c0 -5 5 -10 11 -10 5 0 8 4 5 8 -2 4 4 9 15 9 11 1 19 -3
17 -8 -2 -6 -7 -10 -11 -10 -4 1 -20 -5 -35 -12 -21 -11 -32 -11 -50 -2 -23
12 -23 13 -3 18 12 3 24 1 27 -4 3 -5 10 -9 16 -9 7 0 6 6 -2 15 -9 10 -9 15
-1 15 6 0 11 -4 11 -10z m-220 -35 c0 -8 -5 -17 -12 -21 -7 -4 -8 -3 -4 5 4 6
2 19 -5 27 -10 12 -9 13 5 8 9 -3 16 -12 16 -19z m-1926 0 c-4 -8 -11 -15 -16
-15 -6 0 -5 6 2 15 7 8 14 15 16 15 2 0 1 -7 -2 -15z m241 -13 c5 -14 4 -14
-6 -5 -8 8 -17 9 -23 4 -7 -6 -19 -3 -31 6 -16 12 -16 14 -3 10 10 -3 20 -2
23 3 8 13 32 2 40 -18z m-680 8 c3 -5 1 -10 -4 -10 -6 0 -11 5 -11 10 0 6 2
10 4 10 3 0 8 -4 11 -10z m261 -10 c9 0 13 4 9 9 -6 11 34 6 44 -5 3 -4 -2 -4
-11 -1 -10 4 -21 0 -25 -8 -5 -7 -12 -14 -17 -15 -10 -2 -26 20 -25 35 0 6 3
4 6 -2 2 -7 11 -13 19 -13z m144 10 c0 -4 -12 -7 -26 -7 -14 0 -21 3 -15 7 7
3 18 7 26 7 8 0 15 -4 15 -7z m85 -13 c-25 -14 -56 -17 -49 -5 4 5 12 7 19 4
8 -3 19 2 26 10 6 8 15 12 18 8 3 -3 -3 -11 -14 -17z m53 -1 c1 -15 -1 -17 -7
-7 -7 11 -9 11 -14 0 -3 -8 -5 -5 -4 7 1 27 23 27 25 0z m26 12 c-5 -7 -2 -9
8 -6 8 4 15 1 15 -6 0 -6 -8 -12 -17 -12 -11 0 -16 7 -15 16 5 21 4 20 11 20
3 0 2 -5 -2 -12z m176 3 c0 -6 -4 -12 -8 -15 -5 -3 -9 1 -9 9 0 8 4 15 9 15 4
0 8 -4 8 -9z m1644 -7 c3 -8 2 -12 -4 -9 -6 3 -10 10 -10 16 0 14 7 11 14 -7z
m-2160 -12 c2 -4 -4 -8 -14 -8 -10 0 -16 4 -14 8 3 4 9 8 14 8 5 0 11 -4 14
-8z m116 0 c0 -5 -7 -9 -15 -9 -8 0 -12 4 -9 9 7 10 24 10 24 0z"/>
<path d="M1349 4398 c-6 -27 -5 -39 4 -45 7 -3 9 -3 5 2 -4 4 -3 14 3 21 7 8
7 14 -1 19 -5 3 -10 5 -11 3z"/>
<path d="M1244 4238 c-19 -23 -19 -23 2 -5 11 9 24 14 29 10 4 -5 5 -2 1 5 -9
16 -10 16 -32 -10z"/>
<path d="M4113 3278 c-12 -16 -13 -49 -1 -42 5 3 6 10 2 15 -3 5 0 16 6 24 7
8 10 15 7 15 -2 0 -9 -6 -14 -12z"/>
<path d="M4746 2647 c3 -8 11 -14 19 -14 20 0 19 4 -5 17 -15 8 -18 8 -14 -3z"/>
<path d="M270 843 c0 -6 8 -17 18 -24 16 -13 16 -13 2 6 -8 11 -16 22 -17 24
-2 2 -3 0 -3 -6z"/>
<path d="M3125 100 c-8 -13 9 -20 24 -11 10 6 9 10 -3 14 -8 3 -18 2 -21 -3z"/>
<path d="M1070 136 c0 -2 8 -10 18 -17 15 -13 16 -12 3 4 -13 16 -21 21 -21
13z"/>
<path d="M1110 116 c0 -2 7 -7 16 -10 8 -3 12 -2 9 4 -6 10 -25 14 -25 6z"/>
<path d="M2685 5060 c-3 -6 1 -7 9 -4 18 7 21 14 7 14 -6 0 -13 -4 -16 -10z"/>
<path d="M2739 5065 c-1 -3 -3 -9 -4 -15 -1 -5 -3 -15 -4 -21 0 -5 -5 -8 -10
-4 -5 3 -12 1 -16 -5 -4 -7 -13 -7 -26 0 -11 6 -17 14 -15 18 3 5 -5 9 -17 9
-17 2 -19 0 -7 -7 13 -8 12 -10 -2 -10 -10 0 -18 5 -18 12 0 6 -2 9 -5 6 -10
-10 7 -37 19 -32 7 3 18 -2 25 -10 11 -13 17 -13 35 -4 25 13 27 13 36 -1 8
-15 42 -2 37 13 -3 6 -10 10 -16 8 -7 -1 -10 7 -7 23 3 14 3 25 0 25 -2 0 -5
-2 -5 -5z m-68 -52 c13 -16 12 -17 -3 -4 -17 13 -22 21 -14 21 2 0 10 -8 17
-17z m89 1 c0 -8 -19 -13 -24 -6 -3 5 1 9 9 9 8 0 15 -2 15 -3z"/>
<path d="M2397 5053 c-4 -3 -7 -11 -7 -17 0 -6 5 -5 12 2 6 6 9 14 7 17 -3 3
-9 2 -12 -2z"/>
<path d="M2795 5051 c-3 -5 -2 -12 3 -15 5 -3 9 1 9 9 0 17 -3 19 -12 6z"/>
<path d="M2690 5040 c-9 -6 -10 -10 -3 -10 6 0 15 5 18 10 8 12 4 12 -15 0z"/>
<path d="M2922 5038 c-15 -15 -15 -28 0 -28 6 0 8 3 5 7 -4 3 -2 12 4 20 14
16 7 17 -9 1z"/>
<path d="M2195 5020 c-3 -5 -1 -10 4 -10 6 0 11 5 11 10 0 6 -2 10 -4 10 -3 0
-8 -4 -11 -10z"/>
<path d="M2990 4995 c0 -8 2 -15 4 -15 2 0 6 7 10 15 3 8 1 15 -4 15 -6 0 -10
-7 -10 -15z"/>
<path d="M3035 4980 c3 -5 8 -10 11 -10 2 0 4 5 4 10 0 6 -5 10 -11 10 -5 0
-7 -4 -4 -10z"/>
<path d="M3096 4966 c7 -18 26 -17 30 2 1 7 0 8 -3 2 -3 -8 -9 -7 -19 1 -12
10 -13 9 -8 -5z"/>
<path d="M2030 4958 c0 -4 4 -8 9 -8 6 0 12 4 15 8 3 5 -1 9 -9 9 -8 0 -15 -4
-15 -9z"/>
<path d="M3157 4955 c-4 -8 -3 -16 1 -19 4 -3 9 4 9 15 2 23 -3 25 -10 4z"/>
<path d="M3217 4943 c-12 -11 -8 -22 11 -32 14 -7 19 -6 19 4 0 8 -7 11 -15 7
-11 -4 -14 -1 -9 11 7 18 5 21 -6 10z"/>
<path d="M1910 4926 c0 -2 7 -7 16 -10 8 -3 12 -2 9 4 -6 10 -25 14 -25 6z"/>
<path d="M1830 4882 c0 -5 7 -9 15 -9 8 0 12 4 9 9 -3 4 -9 8 -15 8 -5 0 -9
-4 -9 -8z"/>
<path d="M3496 4787 c3 -10 9 -15 12 -12 3 3 0 11 -7 18 -10 9 -11 8 -5 -6z"/>
<path d="M1636 4762 c-3 -5 1 -9 9 -9 8 0 12 4 9 9 -3 4 -7 8 -9 8 -2 0 -6 -4
-9 -8z"/>
<path d="M1610 4720 c0 -5 5 -10 11 -10 5 0 7 5 4 10 -3 6 -8 10 -11 10 -2 0
-4 -4 -4 -10z"/>
<path d="M1645 4710 c3 -5 3 -11 -2 -11 -53 -8 -63 -7 -57 4 4 7 3 8 -1 4 -13
-12 -15 -36 -3 -44 7 -4 8 -1 3 7 -5 8 -3 11 4 9 18 -6 13 -24 -7 -24 -9 -1
-26 -7 -37 -14 -15 -9 -15 -11 -3 -7 10 3 20 1 23 -4 8 -13 58 16 61 36 3 21
24 35 39 26 5 -3 4 2 -4 11 -15 18 -26 23 -16 7z"/>
<path d="M3537 4696 c-4 -10 1 -12 14 -9 23 6 24 9 5 16 -8 3 -17 0 -19 -7z"/>
<path d="M1509 4643 c-13 -17 -13 -17 6 -3 11 8 22 16 24 17 2 2 0 3 -6 3 -6
0 -17 -8 -24 -17z"/>
<path d="M1485 4598 c4 -9 13 -19 21 -22 8 -3 13 -2 9 3 -3 5 -2 11 2 14 5 2
3 3 -3 1 -6 -1 -17 3 -23 9 -9 9 -11 8 -6 -5z"/>
<path d="M3696 4598 c3 -5 10 -6 15 -3 13 9 11 12 -6 12 -8 0 -12 -4 -9 -9z"/>
<path d="M1470 4585 c0 -5 5 -17 10 -25 5 -8 10 -10 10 -5 0 6 -5 17 -10 25
-5 8 -10 11 -10 5z"/>
<path d="M3677 4578 c-9 -26 16 -41 39 -23 19 15 19 15 0 8 -14 -5 -17 -3 -11
7 5 8 4 11 -3 6 -5 -3 -12 -1 -14 6 -3 8 -7 6 -11 -4z"/>
<path d="M3753 4555 c0 -8 4 -12 9 -9 5 3 6 10 3 15 -9 13 -12 11 -12 -6z"/>
<path d="M1390 4500 c0 -5 5 -10 10 -10 6 0 10 5 10 10 0 6 -4 10 -10 10 -5 0
-10 -4 -10 -10z"/>
<path d="M1378 4479 c18 -20 15 -33 -5 -18 -10 7 -7 1 6 -14 14 -15 29 -27 35
-27 6 0 3 7 -7 14 -16 13 -16 14 -1 20 15 6 12 21 -4 21 -4 0 -14 4 -22 9 -12
7 -13 6 -2 -5z"/>
<path d="M1325 4440 c-3 -6 1 -7 9 -4 18 7 21 14 7 14 -6 0 -13 -4 -16 -10z"/>
<path d="M3871 4393 c0 -11 3 -13 6 -5 2 6 10 9 15 6 7 -4 8 -2 4 4 -11 18
-26 14 -25 -5z"/>
<path d="M3910 4376 c0 -2 8 -10 18 -17 15 -13 16 -12 3 4 -13 16 -21 21 -21
13z"/>
<path d="M3893 4297 c0 -7 9 -14 20 -14 11 -1 18 -1 16 0 -2 2 -11 8 -20 15
-12 9 -16 9 -16 -1z"/>
<path d="M3935 4300 c3 -5 8 -10 11 -10 2 0 4 5 4 10 0 6 -5 10 -11 10 -5 0
-7 -4 -4 -10z"/>
<path d="M3985 4199 c-4 -6 -5 -12 -2 -15 2 -3 7 2 10 11 7 17 1 20 -8 4z"/>
<path d="M1160 4160 c-9 -6 -10 -10 -3 -10 6 0 15 5 18 10 8 12 4 12 -15 0z"/>
<path d="M1180 4145 c-7 -9 -10 -18 -6 -22 3 -3 6 -1 6 5 0 6 6 10 13 8 6 -1
9 -1 4 1 -4 3 -5 9 -1 14 9 15 -2 10 -16 -6z"/>
<path d="M1116 4078 c3 -4 11 -5 19 -1 21 7 19 12 -4 10 -11 0 -18 -5 -15 -9z"/>
<path d="M4094 3938 c-4 -7 -4 -10 1 -6 4 4 15 2 24 -5 14 -11 14 -10 2 6 -16
20 -18 21 -27 5z"/>
<path d="M1060 3925 c0 -8 4 -15 10 -15 5 0 7 7 4 15 -4 8 -8 15 -10 15 -2 0
-4 -7 -4 -15z"/>
<path d="M1072 3884 c-22 -21 -23 -22 -3 -17 12 3 21 10 21 17 0 6 4 4 9 -4 6
-8 7 -18 4 -24 -3 -5 -1 -6 5 -2 9 5 9 13 1 29 -7 12 -12 22 -13 23 0 0 -11
-10 -24 -22z"/>
<path d="M4150 3841 c0 -6 4 -13 10 -16 6 -3 7 1 4 9 -7 18 -14 21 -14 7z"/>
<path d="M4115 3640 c3 -5 10 -10 16 -10 5 0 9 5 9 10 0 6 -7 10 -16 10 -8 0
-12 -4 -9 -10z"/>
<path d="M4155 3641 c3 -6 -3 -15 -14 -20 -29 -16 -34 -42 -11 -58 21 -15 28
-39 8 -27 -10 6 -10 4 -2 -7 12 -16 12 -29 1 -45 -7 -12 21 -29 31 -19 3 3 0
5 -6 5 -7 0 -12 4 -12 10 0 5 6 7 14 4 8 -3 17 -1 20 4 3 5 -2 9 -10 8 -9 0
-18 7 -19 17 -2 9 1 17 6 17 6 0 8 4 4 9 -3 5 -1 12 5 16 5 3 10 11 10 18 0 6
-6 3 -13 -7 -13 -17 -14 -17 -28 0 -12 16 -12 17 2 12 13 -5 15 -1 11 19 -3
15 -1 23 4 20 6 -3 11 3 11 14 1 10 -3 19 -8 19 -6 0 -8 -4 -4 -9z m-24 -54
c-10 -9 -11 -8 -5 6 3 10 9 15 12 12 3 -3 0 -11 -7 -18z"/>
<path d="M996 3558 c3 -5 10 -6 15 -3 13 9 11 12 -6 12 -8 0 -12 -4 -9 -9z"/>
<path d="M998 3533 c7 -3 16 -2 19 1 4 3 -2 6 -13 5 -11 0 -14 -3 -6 -6z"/>
<path d="M1026 3515 c-7 -20 0 -35 17 -34 9 0 9 2 0 6 -14 5 -18 25 -5 21 4
-2 8 1 10 7 6 17 -15 17 -22 0z"/>
<path d="M4134 3452 c4 -7 2 -21 -5 -30 -12 -15 -11 -15 6 0 16 15 17 20 6 30
-11 11 -13 10 -7 0z"/>
<path d="M1028 3278 c12 -8 19 -17 16 -21 -4 -4 -3 -7 3 -7 15 0 24 27 10 27
-7 0 -21 4 -32 7 -16 6 -15 4 3 -6z"/>
<path d="M1010 3260 c0 -5 5 -10 11 -10 5 0 7 5 4 10 -3 6 -8 10 -11 10 -2 0
-4 -4 -4 -10z"/>
<path d="M1015 3230 c-3 -6 1 -7 9 -4 18 7 21 14 7 14 -6 0 -13 -4 -16 -10z"/>
<path d="M930 3140 c0 -5 5 -10 11 -10 5 0 7 5 4 10 -3 6 -8 10 -11 10 -2 0
-4 -4 -4 -10z"/>
<path d="M970 3146 c0 -2 7 -7 16 -10 8 -3 12 -2 9 4 -6 10 -25 14 -25 6z"/>
<path d="M830 3080 c0 -5 5 -10 11 -10 5 0 7 5 4 10 -3 6 -8 10 -11 10 -2 0
-4 -4 -4 -10z"/>
<path d="M892 3074 c-7 -8 -8 -14 -3 -14 10 0 25 19 20 25 -2 1 -10 -3 -17
-11z"/>
<path d="M4325 3040 c-3 -6 1 -7 9 -4 18 7 21 14 7 14 -6 0 -13 -4 -16 -10z"/>
<path d="M4376 3033 c-6 -14 -5 -15 5 -6 7 7 10 15 7 18 -3 3 -9 -2 -12 -12z"/>
<path d="M4450 2960 c0 -5 5 -10 11 -10 5 0 7 5 4 10 -3 6 -8 10 -11 10 -2 0
-4 -4 -4 -10z"/>
<path d="M635 2951 c-3 -5 -2 -12 3 -15 5 -3 9 1 9 9 0 17 -3 19 -12 6z"/>
<path d="M581 2852 c-1 -7 -7 -10 -13 -7 -7 4 -5 0 4 -8 22 -17 12 -30 -13
-16 -15 7 -17 6 -13 -6 3 -8 10 -13 14 -10 5 3 11 1 14 -4 7 -11 -13 -9 -31 2
-7 5 -13 4 -13 -1 0 -15 48 -33 53 -19 2 7 4 15 3 18 0 3 5 13 13 23 8 9 11
19 7 23 -3 3 -6 0 -7 -8 0 -8 -4 -6 -9 6 -5 11 -9 14 -9 7z"/>
<path d="M435 2740 c-3 -5 -1 -10 4 -10 6 0 11 5 11 10 0 6 -2 10 -4 10 -3 0
-8 -4 -11 -10z"/>
<path d="M461 2724 c0 -11 3 -14 6 -6 3 7 2 16 -1 19 -3 4 -6 -2 -5 -13z"/>
<path d="M335 2609 c-4 -6 -5 -12 -2 -15 2 -3 7 2 10 11 7 17 1 20 -8 4z"/>
<path d="M294 2583 c4 -4 16 -8 28 -10 28 -4 18 6 -12 12 -12 2 -20 1 -16 -2z"/>
<path d="M4825 2570 c-10 -17 4 -28 30 -25 27 3 31 -5 13 -23 -7 -7 -9 -13 -5
-13 4 -1 12 -3 17 -4 6 -1 14 -3 19 -4 5 0 8 -7 7 -13 0 -7 4 -14 9 -16 6 -1
11 7 11 17 1 11 -2 20 -5 19 -18 -2 -28 4 -29 17 -1 8 -3 22 -4 30 -2 17 -18
21 -18 5 0 -5 -5 -10 -11 -10 -5 0 -8 4 -5 9 3 5 -1 11 -9 15 -8 3 -17 1 -20
-4z"/>
<path d="M4913 2535 c0 -8 4 -12 9 -9 5 3 6 10 3 15 -9 13 -12 11 -12 -6z"/>
<path d="M209 2403 c-13 -16 -12 -17 4 -4 9 7 17 15 17 17 0 8 -8 3 -21 -13z"/>
<path d="M4923 2405 c0 -8 6 -16 14 -19 11 -4 11 -1 3 14 -13 24 -17 25 -17 5z"/>
<path d="M230 2390 c0 -5 5 -10 11 -10 5 0 7 5 4 10 -3 6 -8 10 -11 10 -2 0
-4 -4 -4 -10z"/>
<path d="M213 2356 c-13 -6 -23 -14 -23 -19 0 -4 10 -2 23 5 12 7 25 12 29 13
3 0 10 3 14 8 11 10 -17 6 -43 -7z"/>
<path d="M4987 2350 c-3 -11 -3 -20 -1 -20 2 0 8 9 14 20 6 11 7 20 2 20 -6 0
-12 -9 -15 -20z"/>
<path d="M5016 2338 c3 -4 11 -5 19 -1 21 7 19 12 -4 10 -11 0 -18 -5 -15 -9z"/>
<path d="M5032 2311 c-11 -7 -11 -9 0 -14 9 -3 15 1 15 9 0 8 -1 14 -1 14 -1
0 -7 -4 -14 -9z"/>
<path d="M136 2245 c-3 -8 -1 -15 4 -15 6 0 10 7 10 15 0 8 -2 15 -4 15 -2 0
-6 -7 -10 -15z"/>
<path d="M5073 2235 c0 -8 4 -12 9 -9 5 3 6 10 3 15 -9 13 -12 11 -12 -6z"/>
<path d="M105 2200 c-3 -6 1 -7 9 -4 18 7 21 14 7 14 -6 0 -13 -4 -16 -10z"/>
<path d="M123 2175 c-3 -9 -3 -18 -1 -21 3 -3 8 4 11 16 6 23 -1 27 -10 5z"/>
<path d="M90 2161 c0 -6 4 -13 10 -16 6 -3 7 1 4 9 -7 18 -14 21 -14 7z"/>
<path d="M76 2121 c-3 -5 1 -14 8 -20 10 -9 16 -9 21 -1 4 6 1 9 -7 8 -7 -2
-12 3 -10 10 2 14 -4 16 -12 3z"/>
<path d="M5105 2119 c-4 -6 -5 -12 -2 -15 2 -3 7 2 10 11 7 17 1 20 -8 4z"/>
<path d="M5070 2082 c0 -5 7 -9 15 -9 8 0 15 4 15 9 0 4 -7 8 -15 8 -8 0 -15
-4 -15 -8z"/>
<path d="M55 2020 c3 -5 8 -10 11 -10 2 0 4 5 4 10 0 6 -5 10 -11 10 -5 0 -7
-4 -4 -10z"/>
<path d="M56 1936 c5 -13 4 -17 -4 -12 -8 5 -10 2 -5 -10 6 -15 7 -15 16 1 6
11 5 21 -3 28 -8 9 -9 7 -4 -7z"/>
<path d="M35 1708 c13 -20 13 -27 3 -31 -7 -3 -3 -4 9 -4 12 1 20 4 17 8 -2 4
1 10 6 12 6 3 5 4 -2 3 -7 -1 -21 7 -31 18 -18 21 -18 21 -2 -6z"/>
<path d="M17 1653 c-10 -9 -9 -23 1 -23 5 0 9 7 9 15 0 17 -1 18 -10 8z"/>
<path d="M47 1640 c-4 -14 -1 -17 12 -12 14 5 14 4 2 -12 -12 -14 -12 -19 -1
-29 10 -9 11 -9 5 1 -4 7 0 21 7 30 26 30 27 37 3 38 -15 1 -25 -5 -28 -16z"/>
<path d="M34 1515 c-4 -8 -11 -12 -17 -8 -6 3 -7 1 -3 -5 10 -16 14 -15 26 8
6 11 8 20 5 20 -3 0 -8 -7 -11 -15z"/>
<path d="M90 1241 c0 -11 -6 -22 -12 -25 -7 -3 -4 -4 6 -3 10 1 21 -4 23 -10
3 -7 0 -13 -6 -13 -6 0 -11 -5 -11 -10 0 -6 11 -3 25 6 20 13 23 20 14 30 -6
8 -16 11 -22 7 -6 -4 -8 2 -5 15 4 12 2 22 -3 22 -5 0 -9 -9 -9 -19z"/>
<path d="M5098 1139 c-23 -13 -23 -28 0 -26 10 0 18 9 18 19 0 10 0 18 -1 18
0 0 -8 -5 -17 -11z"/>
<path d="M94 1098 c-4 -6 -3 -8 4 -4 6 3 18 -4 26 -16 9 -12 16 -17 16 -11 0
11 -26 43 -35 43 -2 0 -7 -5 -11 -12z"/>
<path d="M181 1010 c-8 -5 -9 -10 -3 -14 11 -7 11 -24 -1 -43 -6 -9 -3 -11 9
-6 13 5 15 3 9 -8 -7 -11 -5 -11 10 1 16 14 17 13 11 -8 -5 -14 -3 -22 4 -22
6 0 9 -4 6 -8 -3 -5 1 -9 9 -9 11 0 12 4 4 14 -9 10 -8 13 1 13 9 0 7 6 -5 20
-13 14 -15 23 -7 32 13 17 -28 50 -47 38z m32 -48 c-7 -17 -13 -10 -19 24 -5
27 -4 28 9 9 8 -10 12 -25 10 -33z"/>
<path d="M5086 998 c3 -5 10 -6 15 -3 13 9 11 12 -6 12 -8 0 -12 -4 -9 -9z"/>
<path d="M5025 960 c-3 -5 -1 -10 4 -10 6 0 11 5 11 10 0 6 -2 10 -4 10 -3 0
-8 -4 -11 -10z"/>
<path d="M5056 947 c3 -10 9 -15 12 -12 3 3 0 11 -7 18 -10 9 -11 8 -5 -6z"/>
<path d="M5020 935 c0 -2 6 -8 13 -14 10 -8 14 -7 14 2 0 8 -6 14 -14 14 -7 0
-13 -1 -13 -2z"/>
<path d="M196 896 c6 -15 4 -17 -6 -11 -9 6 -11 4 -5 -4 5 -9 10 -10 18 -2 8
8 7 14 -2 24 -10 10 -11 8 -5 -7z"/>
<path d="M220 870 c-8 -5 -12 -12 -9 -15 4 -3 12 1 19 10 14 17 11 19 -10 5z"/>
<path d="M5016 861 c-4 -5 3 -7 14 -4 23 6 26 13 6 13 -8 0 -17 -4 -20 -9z"/>
<path d="M4909 758 c-19 -23 -34 -45 -34 -49 0 -16 -47 -69 -56 -64 -5 4 -9 1
-9 -4 0 -10 7 -13 26 -10 4 0 11 -5 16 -13 5 -8 7 -4 4 15 -5 32 0 33 28 10
17 -15 19 -15 8 -1 -9 11 -10 18 -2 23 6 3 8 11 5 16 -4 5 -1 9 6 9 7 0 5 6
-6 13 -12 10 -14 16 -7 21 7 4 12 2 12 -3 0 -6 5 -11 11 -11 5 0 7 5 3 12 -5
7 -2 9 8 5 10 -3 15 0 14 11 0 10 5 16 14 14 12 -2 11 1 -2 11 -10 8 -15 17
-11 20 3 4 12 2 19 -4 9 -7 14 -6 20 3 4 7 4 10 -1 6 -4 -4 -14 -3 -20 2 -10
8 -22 -1 -46 -32z m7 -16 c-17 -16 -18 -16 -5 5 7 12 15 20 18 17 3 -2 -3 -12
-13 -22z m-30 -57 c-3 -20 -16 -31 -16 -13 0 13 8 28 16 28 1 0 1 -7 0 -15z"/>
<path d="M250 746 c0 -2 7 -7 16 -10 8 -3 12 -2 9 4 -6 10 -25 14 -25 6z"/>
<path d="M344 678 c-4 -6 -3 -8 3 -5 6 4 16 0 23 -8 7 -8 17 -12 24 -8 6 3 6
0 -1 -8 -10 -10 -16 -10 -25 -1 -7 7 -17 12 -22 12 -6 0 4 -10 22 -21 17 -12
32 -26 32 -32 0 -7 4 -6 10 3 5 9 5 19 0 26 -6 6 -7 14 -3 17 3 4 0 14 -7 22
-11 13 -15 13 -21 3 -7 -10 -9 -10 -9 0 0 15 -16 16 -26 0z"/>
<path d="M4870 620 c0 -5 5 -10 11 -10 5 0 7 5 4 10 -3 6 -8 10 -11 10 -2 0
-4 -4 -4 -10z"/>
<path d="M373 605 c0 -8 4 -12 9 -9 5 3 6 10 3 15 -9 13 -12 11 -12 -6z"/>
<path d="M416 595 c-3 -9 -2 -13 4 -10 6 3 10 1 10 -5 0 -7 8 -9 20 -5 15 5
18 3 14 -9 -3 -9 -2 -16 3 -16 17 0 10 29 -10 47 -20 17 -20 17 -14 -2 7 -19
6 -19 -7 -2 -12 16 -14 16 -20 2z"/>
<path d="M396 558 c3 -5 10 -6 15 -3 13 9 11 12 -6 12 -8 0 -12 -4 -9 -9z"/>
<path d="M435 550 c-3 -5 -1 -10 4 -10 6 0 11 5 11 10 0 6 -2 10 -4 10 -3 0
-8 -4 -11 -10z"/>
<path d="M390 536 c0 -2 8 -10 18 -17 15 -13 16 -12 3 4 -13 16 -21 21 -21 13z"/>
<path d="M501 523 c1 -5 0 -10 -1 -13 -1 -3 -3 -13 -5 -24 -3 -14 -1 -16 8 -7
17 17 31 13 17 -4 -7 -9 -11 -18 -8 -21 3 -2 13 7 22 20 14 23 14 26 0 40 -16
17 -35 21 -33 9z m33 -21 c2 -4 -4 -8 -14 -8 -10 0 -16 4 -14 8 3 4 9 8 14 8
5 0 11 -4 14 -8z"/>
<path d="M4722 525 c4 -4 3 -14 -3 -22 -9 -10 -8 -13 0 -13 7 0 10 -4 6 -9 -3
-5 0 -13 6 -17 7 -4 9 -3 5 4 -3 6 4 18 16 26 12 9 18 16 12 16 -5 0 -16 -6
-23 -12 -11 -11 -13 -10 -8 4 3 10 1 20 -6 24 -7 4 -9 4 -5 -1z"/>
<path d="M558 413 c7 -3 16 -2 19 1 4 3 -2 6 -13 5 -11 0 -14 -3 -6 -6z"/>
<path d="M4589 393 c-12 -14 -12 -16 0 -8 11 6 13 4 8 -8 -3 -9 -1 -19 6 -23
7 -4 9 -4 5 1 -4 4 -3 16 2 26 13 24 -4 34 -21 12z"/>
<path d="M4655 400 c3 -5 8 -10 11 -10 2 0 4 5 4 10 0 6 -5 10 -11 10 -5 0 -7
-4 -4 -10z"/>
<path d="M4628 363 c7 -3 16 -2 19 1 4 3 -2 6 -13 5 -11 0 -14 -3 -6 -6z"/>
<path d="M740 319 c0 -5 5 -7 10 -4 6 3 10 8 10 11 0 2 -4 4 -10 4 -5 0 -10
-5 -10 -11z"/>
<path d="M4555 322 c3 -3 -3 -11 -13 -19 -15 -13 -15 -13 5 -3 28 13 37 27 18
27 -8 0 -13 -3 -10 -5z"/>
<path d="M4590 319 c0 -5 5 -7 10 -4 6 3 10 8 10 11 0 2 -4 4 -10 4 -5 0 -10
-5 -10 -11z"/>
<path d="M678 303 c7 -3 16 -2 19 1 4 3 -2 6 -13 5 -11 0 -14 -3 -6 -6z"/>
<path d="M857 236 c-4 -9 -3 -26 2 -38 8 -21 8 -21 13 4 6 32 -6 58 -15 34z"/>
<path d="M2779 213 c0 -5 -2 -16 -4 -26 -2 -11 -1 -16 3 -13 8 8 14 46 7 46
-3 0 -5 -3 -6 -7z"/>
<path d="M4276 205 c-3 -8 0 -15 6 -15 7 0 6 -5 -2 -15 -14 -17 -8 -31 9 -20
6 3 9 11 6 16 -4 5 1 12 10 15 12 5 13 9 4 20 -15 18 -25 18 -33 -1z"/>
<path d="M2555 200 c-3 -5 -1 -10 4 -10 6 0 11 5 11 10 0 6 -2 10 -4 10 -3 0
-8 -4 -11 -10z"/>
<path d="M815 180 c-3 -5 -1 -10 4 -10 6 0 11 5 11 10 0 6 -2 10 -4 10 -3 0
-8 -4 -11 -10z"/>
<path d="M2815 180 c-3 -5 -1 -10 4 -10 6 0 11 5 11 10 0 6 -2 10 -4 10 -3 0
-8 -4 -11 -10z"/>
<path d="M4370 179 c0 -5 5 -7 10 -4 6 3 10 8 10 11 0 2 -4 4 -10 4 -5 0 -10
-5 -10 -11z"/>
<path d="M2475 170 c-3 -6 1 -7 9 -4 18 7 21 14 7 14 -6 0 -13 -4 -16 -10z"/>
<path d="M2514 160 c0 -13 4 -16 10 -10 7 7 7 13 0 20 -6 6 -10 3 -10 -10z"/>
<path d="M2911 162 c-14 -26 -14 -42 -1 -22 9 13 11 13 20 0 8 -12 9 -11 7 7
-5 33 -14 38 -26 15z"/>
<path d="M4236 172 c-3 -6 -1 -14 5 -17 15 -10 25 3 12 16 -7 7 -13 7 -17 1z"/>
<path d="M4318 173 c7 -3 16 -2 19 1 4 3 -2 6 -13 5 -11 0 -14 -3 -6 -6z"/>
<path d="M2836 162 c-3 -5 1 -9 9 -9 8 0 12 4 9 9 -3 4 -7 8 -9 8 -2 0 -6 -4
-9 -8z"/>
<path d="M2953 143 c0 -21 1 -23 9 -9 5 9 14 14 20 10 7 -5 7 -8 0 -13 -7 -4
-8 -12 -2 -21 8 -13 10 -12 10 3 0 10 4 16 10 12 5 -3 7 -12 3 -20 -3 -8 -3
-15 0 -15 17 0 12 32 -8 54 -31 33 -42 33 -42 -1z"/>
<path d="M2435 141 c-3 -5 0 -13 6 -17 7 -4 9 -3 5 4 -3 5 0 13 6 15 9 4 10 6
1 6 -6 1 -14 -3 -18 -8z"/>
<path d="M973 111 c0 -11 5 -18 9 -15 4 3 5 11 1 19 -7 21 -12 19 -10 -4z"/>
<path d="M2275 110 c-4 -6 0 -19 9 -29 9 -10 13 -21 9 -26 -5 -4 -2 -5 5 -1
10 6 10 11 2 21 -7 8 -9 19 -6 24 4 5 2 12 -3 15 -5 4 -13 1 -16 -4z"/>
<path d="M2240 100 c-9 -6 -10 -10 -3 -10 6 0 14 -8 16 -17 3 -10 4 -6 4 10
-1 15 -2 27 -2 27 0 0 -7 -5 -15 -10z"/>
<path d="M4175 101 c-3 -5 -2 -12 3 -15 5 -3 9 1 9 9 0 17 -3 19 -12 6z"/>
<path d="M2357 93 c-10 -9 -9 -23 1 -23 5 0 9 7 9 15 0 17 -1 18 -10 8z"/>
<path d="M3035 80 c-3 -5 -1 -10 4 -10 6 0 11 5 11 10 0 6 -2 10 -4 10 -3 0
-8 -4 -11 -10z"/>
<path d="M4205 80 c-3 -6 1 -7 9 -4 18 7 21 14 7 14 -6 0 -13 -4 -16 -10z"/>
<path d="M1114 65 c1 -8 6 -18 11 -22 4 -5 5 -2 0 6 -6 11 -4 13 8 8 23 -9 21
0 -2 13 -15 7 -19 7 -17 -5z"/>
<path d="M1355 50 c-2 -3 7 -6 21 -6 13 0 24 3 24 7 0 9 -40 8 -45 -1z"/>
<path d="M2075 50 c3 -5 8 -10 11 -10 2 0 4 5 4 10 0 6 -5 10 -11 10 -5 0 -7
-4 -4 -10z"/>
<path d="M3433 37 c0 -15 3 -27 8 -27 16 0 18 17 5 35 -13 17 -13 17 -13 -8z"/>
<path d="M2240 40 c-9 -6 -10 -10 -3 -10 6 0 15 5 18 10 8 12 4 12 -15 0z"/>
<path d="M3715 40 c-3 -5 -2 -10 4 -10 6 0 8 -8 5 -17 -5 -14 -4 -15 4 -4 6 8
8 20 5 28 -6 16 -10 16 -18 3z"/>
<path d="M3750 36 c0 -8 4 -17 9 -21 6 -3 9 4 8 15 -1 23 -17 28 -17 6z"/>
<path d="M3980 40 c-9 -6 -10 -10 -3 -10 6 0 15 5 18 10 8 12 4 12 -15 0z"/>
<path d="M1445 30 c-3 -5 5 -14 17 -21 13 -6 20 -8 16 -4 -4 5 -4 13 2 19 6 8
3 12 -10 13 -11 1 -22 -2 -25 -7z"/>
<path d="M3220 20 c-9 -6 -10 -10 -3 -10 6 0 15 5 18 10 8 12 4 12 -15 0z"/>
<path d="M3890 20 c0 -5 5 -10 11 -10 5 0 7 5 4 10 -3 6 -8 10 -11 10 -2 0 -4
-4 -4 -10z"/>
<path d="M3830 10 c-9 -6 -10 -10 -3 -10 6 0 15 5 18 10 8 12 4 12 -15 0z"/>
</g>
</svg>
